<mxfile host="app.diagrams.net" agent="Mozilla/5.0 (Macintosh; Intel Mac OS X 10_15_7) AppleWebKit/537.36 (KHTML, like Gecko) Chrome/131.0.0.0 Safari/537.36" version="25.0.3">
  <diagram name="Page-1" id="kVt8Em_kQJLYtogck9mr">
    <mxGraphModel dx="224" dy="744" grid="1" gridSize="10" guides="1" tooltips="1" connect="1" arrows="1" fold="1" page="0" pageScale="1" pageWidth="850" pageHeight="1100" math="0" shadow="0">
      <root>
        <mxCell id="0" />
        <mxCell id="1" parent="0" />
        <mxCell id="KDZLqLgYZf37Dj3iUJCh-66" value="" style="shape=cube;whiteSpace=wrap;html=1;boundedLbl=1;backgroundOutline=1;darkOpacity=0.05;darkOpacity2=0.1;" parent="1" vertex="1">
          <mxGeometry x="480" y="730.0000000000001" width="126.79" height="144" as="geometry" />
        </mxCell>
        <mxCell id="KDZLqLgYZf37Dj3iUJCh-67" value="" style="shape=image;verticalLabelPosition=bottom;labelBackgroundColor=default;verticalAlign=top;aspect=fixed;imageAspect=0;image=data:image/png,iVBORw0KGgoAAAANSUhEUgAAAf4AAACGCAYAAAA8aeg9AAAACXBIWXMAABYlAAAWJQFJUiTwAAAAAXNSR0IArs4c6QAAAARnQU1BAACxjwv8YQUAAD6NSURBVHgB7Z0PlBT1le/vr7oHEZihBYyuMkPPec+8GDAOCujCO8+ZmJPzMOYw7NGI+87CmH2R5EQDxD/7TFTAmOQt6gKBvATctw5kdwNJXhhPVLI5UZrz3hACqJMImujumWEGjRuBDINAItP1e79vdVdPVXVV16/638ww9+MZZ7q6uvrXVU19772/+7tX0BhAnutOkhlrIimTZIgZJCihNidJqh9rB/U4s83zQupX2/vVH+q36LceE/WQKY+SNLqwTUya3kUMwzAMM0oQdIFhiXw61kwxukkJvRJ7kfQV9fK+a5d6H/VDe4mMLjYGGIZhmJHKqBd++YfuBNUYbcqTV0JPzZUXeQ0ykYIUmfQsnU+nxCWNPcQwDMMwI4BRKfyWV0/xZeqvZkvsRzwqImDSNjpvdrARwDAMwwwno0b4c559TCwaHWIfBIwAsZEjAQzDMMxwMOKFX57uU/P1EmLfNiLC+OVEUjtJYyPnBDAMwzDVYsQKvyX4cbl6dHv3miAfIE3bxKSGdmIYhmGYCjLihH9MCX4+PWTSWjYAGIZhmEoxYoR/jAu+lx5Ki7tEbX2KGIZhGKaMDLvwyz90J2lcbL0aSSsxbpAD8EF6LScBMgzDMOViWIVfnu1bQVKuueCS9sqNEGvExfVriWEYhmFKZFiEX3n5TTReefkc1o9CD/0p3cLeP8MwDFMKBlUZy8u/KPYqi35kkuq8dctzfauJYRiGYYqkah6/NZc/PvYMC345kF30J3Mxe/8MwzBMVKri8VsZ+xfF9rDolwvRhPMpz3RzQiTDMAwTiYoLvxXaj8k9RNkWuEy5SJKI7eLQP8MwDBOFiob65dne9erXSmIqzQYxoWEVMQzDMEwIFRF+q6HO+NguDu1XE2veH1n//cQwDMMwAZQ91G8l8V0UL3o+f8u25+g/zFtKD3/jGep7+/c0Vhg4fYae2LyTduzaQ8Vhzfu/ap1/hmEYhgmgrB5/RvRjRc3nQ+TvfWgzdR44kttWf+WH6MF7PkNLFrfQhQyMnXXf/gENDJyxHuPz4nPj8xcBr/dnGIZhAimb8Jci+l7h81KiEI5YOg8cVpGNdjr8m+685/BZv/7QXbTwE/OoCFj8GYZhGF/KIvzFij7C219VIX2d8Pbk2omW+N+97FYqNxjHKR+jo1KGBoQeUxnO6EYQ+MwP3HMHFQGLP8MwDJNHycJvJfJhTp9kU5TXIbS/aOnqyPP4EONnt6+NLMoQ985fHqFe9X6Hf9NDh9/ooVNqm877470arryUJtdNpD+/roE+NutjNOvqJNUpYyTqGNZt2klbtj8f6XWzPtJI27/9YBGGCCf8MQzDMG5KF/4zvbuidtZDiHvpPesCQ/s6PLv9MZo/b2bg87bQdx48Qi/8/EBFEgUhyDAAbrl5Hi24YWZBQwBePgydYj9zsQaPujYpcXHDhZ0kwTAMw2hTkvBbxWPQXS8CmM9/+JvPULEUmu+H2EPkMXXwmvLqSzEsimGBMkQwvqBkRBgf6zb/oOjMfUx3bPrmPcXM+/M6f4ZhGMaiaOG3KvKR3BDlNRA9LFkrBogq5roX+Hj58KZ37ErR95WgVlvs/ahTUwKIAgQZKJjbxwqGYqMQEP/oKx3kKjFhRqTrxTAMw1x4FCX82WS+7iivKVb0IaIPfvEOWr7sU/lP9h+i/tf/nq6/599p4GzVGw2GUj91kF7adD0lPryEaNKH857HOdm6/Sd0auAsRaWopL90ukXUNqaIYRiGGbNEFv5iMviLFX1499u//Tf5c+d/fIfkG2tI9r9sPXz6xTp6+EdTdA9LdRNMS5RnTf+AJo9Xf08bpLqLzbz9+k7Erd+H3x5nGRaHj42LZGB8a+lxuuPP37f+Fpd/mkTjcqLxf+Z+jyKTHEERnj8y/Wdzsh/DMMzYJbrwn+l9Rr2qTXf/YkQ/0MsfPE2y759J9mzNe83i9ZfTvjfH+x4PIr/wY2dpZv0HtODDf7QeFwuMARgA+347njr/dTwd6RsX+J6HHj+Wtz3IACjWOIos/pzsxzAMM6aJJPxR5/WLSeTDnDiWriFj3oUK65vKy6c//s73dRB9iL/NfCXwC689a/2UIvRhwBDAe+/YP8lleLz4lXdoljI0fBl/hRL/uy0jwMkLLx4oqlRx2AqHfHi+n2EYZqyiLfxWiH9c7FX1ioTua1oW32etl9fFd706vPzuLSSPfT/09Y/8UIX7JdHCprOW8FcbGAFPPJegBmVo3H9reDTd8v6vuo8oXjt0jCJC/7OubqQ9u56kCPRnQ/49xDAMw4wp9IU/YogfoEBOS+v9WiKGcPXXv3KXez5fzeWbr94d6OUXA+boT50zXFGAHb+YRCu2T7P+vvvjA/S120/mnrO9+ZnTP7ByAq5RP8gRKBvK+zdmb3WF/nG+lt7zt1pGE6/vZxiGYaKglakm3+9uiyr6AOvOdURp+bJbrblql+gjtH/wL0sWfQg9xBvRgDkPT6ePf+OKvH3sJD5wypO8h8gBDIVH1ev/Qk0lXHVfA9389SvoS8pQ2N01gUoGxs3BO0keT+U24Xx1aIbvi+5hIKlZnj26khiGYZgxRajHnynJq0L8RTTfsSkUvvZbliaP/TPJt56iUoDY7/7VBMtbd2biOzPtbWAUbH2pzvobQr9r1buu5yH8MBr8Mvrh/SOP4I4b37cSB0tBJO/OJP45gOe/++cHfPdHlAQGUwkg5N/IWf4MwzBjh3CPf3x8BZUg+sAOR0+uc3vIEK480e/ZUpLoQ+yR5IcfiLlTrBHe94o+cHr5Tu/fZvLFJi1vGSA/cPydaqoA0QAYB5g2KBasVkA+gxMIO8oCe7G696mpkRJJ0DiDvX6GYZgxREGPv5hCPYVAhb3WpY9aBWuwRh/hbNf7QfS7t1IxwMNH+N1PuG2QcPfAp/KdW+dSQIj8m3/Xm7cPvH4IfOdb4619C63nh4Fxv3qfJT5Ghg5ez98vV+KVF79Tvu6BGa+/hxiGYZgLnsLCX0RCXxioU48166mOJ11z+sWKPoQegh+0hh+h+CU3vF8w099bA+Ctp3pDE/ispD9lCOxThkCQsYG6AduW/76o5YRe8XdOl5TQqtcfSe1iYkPJ4QOGYRhm5BMo/OX29gtR7Jw+QvlPPJ/w9b4h8ner8Dzm3cNEHCF6p3ij8E4UsUYkwLuO30lQpCEM8R/vI1H/l7nHiJhgnb83UlIWuJwvwzDMmCBY+Cvg7fuC7P1Xl0d6SSEvH4IPkY2yjv+yLyRdj3+86t2iEvUwHhgifuOCIYGkwajev7jmKRLTmqkKdIgJDYuJYRiGuaDxFf5qefsDJ9+lSb/975GW7KFcbtt3P5QXXodX//htJ32T9wqBufsPf7nBtW3j0uOB8/OILoRFEBABgAHgHSNEv12F/gMr+vkRr6XTs3bQ5Esup4pTobn+RHJuU8ykFTQKONF7sOCUx7Tpc5pNg5pUjCkhpehJnz+f6n+3q4cYhmFGCf6T0+Niq6kKNN++lu6YfU556Hr7Q1DRjMcb2ofYQ/SDBLmQWPtNEwycC07ce/iHU6jvZDy3fM/Pg8d4EHFAFb+d+4ey/GEI3PyNK3yXFAbxZEeMdj/1JHV87zGaXFuGugGFGGe0qf+voTITH5QJMkQbjQ58hR+CLw2B+tNJ+9shlNkcH1dDU+vntisDYC0bAAwzepnSMGdljISWg2JKc9WJvpc7aJTir3CCmqnCIMEPiWpPKnGEdxwGRB/hfadQQ8xRZQ9C6ifsVglddWy/oj3OfXS22cBbRygflf6QGxC0kgAGwbeWHfcdG16j85ntc4O5/Sc2RW/gExkhVlh1GxgXUxrmrlCGyx4RsKxVGQBtsXE1exKJJj53DDNKsaJ46t+4zo+Ki4/qf+t5wm9V6Stx3X4YEHxnJzoI3M4C699t0Xdiz5mjxK4XGAcQTAgzjh21xO6pAkv1ULbXO7ZCBgA8+5e+8k5eZADjsosG+WEnLtps2f4c7TtwhCpMgi6yvH4mS+LypqQguSZsPxgF8bpxXBOBYZgRT77CxWLLqMJgWZoXCGenT1Ic5vSDRN8rwgCCef0jGcG3wdr8IHr9PP6TwR4/QvjI+keo3ynmMACwLNCvgE9QYh8qBvoZPCgFbDUc8nDPQ5vp1OmzVFGEWERMDmNcvFWQ0LTu5ajIY2AYZmzjEn4rqU9WNsyPVr1BTXsmezxzeNBI5HMSJKLw8mEgQDDt6QB4+sjwx1r6IKKG+u0xIIyPceD49ljwOkwB+Hn/2OfFr75jre13gvEe7hvn3neaf+Y/ztvWbT+hioIa/qe7m4mxMARFMYQSlybnNhHDMMwIxu3x1xitVEEgXFu2P+/7HNa6Oz14iDc8aKeA5kT/sglEF9cPHVftg3l8p/cMj/zlrx2zjlso1O+XyFeoKp+T+mz7XYwJ72dje/8u8Y/X0eQpV+YV9MGqgrYtH3K9J85D0Lr/Lduer7zXbxjNxBSFHBzdc38Mw1z4uBVOGBUN89sJfV4ghF6h8y6Hq6urpY5nvkIz7vwNGZ/8VzJaXibjlt/TkSnfdYksRB5CDI9cZ27fbz4fYqwr/vb47UQ+p/ePcb0evycz3uyYZ/zVO9Sx8ztUP93Rhjdbl8AJDAq/FQMo31txr1+Iik/3jBakFEej7C/ighseMQwzosmpmxXmF7JiYUoIPsr1+uEVfcyTexPfNj/1CDVce5vlOdscfv1Nav3ct3OiP+uqy+il1WciFe8Jms8/dU5f+G2QyJeLSFBG0Fvv20uH33R3+2u46gba9NSjrm1oLuRt8wtDwo8qeP1J+X43h6wJMx+yS39f0fNez0Ht/RmGYYaDIdWrqezc/vd3pXy3Q6S9a9qf9Cx1e3DV52jhJ5td2/qO/Y6Wfu4BGhg4bT2e9dGr6Nmd36W6mn4y96sZi3N9pEOQwCPpr5ga+w03rqI9iz5P9973GO3+2V46pcbXescXaM/uf3R5+QtuvJ7u/uwS2voPO3LbkB+w4MPHcpEKnBv8eCsB2l5/Wev1exHWtE9ZRGxQiv64kCkqEuV1NwmsONDZl6hfCFk28TWNwXZhjlshSCZDd5ZyLTEMw4xwcpX75LnePZVM7Lvu5i/4hvm95XG96/ohlq90Put6DUR/0R2ft36DnOir6QCL86fI/KXSrYHw5W/eOv02har3BSE+9i0S05fkHsMwgfjbnwPiP9keY5aWhf9NRS7eyj321vWH6GPKwMvk2on08kvfrVxRH0EpcXFDC40ALm2Y2y11l5hKSh3vO1jWcSeSNyZjprmnsPiLtcd7D6whhmFGJdMa5qxR/461itdJmb7rRN8r7TRKGXJ3TapYaBchfj/RhzfrFH274I6T7U8/kfe6deufzok+BNUl+qBmMhk3dLgSAIMIyuAfiBjqF1c94BJ9gHA+jBLrfdR4lylDwMvjq7/segzDxzkm2+v3Aq9/x49fooqB7H4u5mPR37O/J20YLcr42IaIgutJKVMqIrGYRZ9hmNGCpW7ydF+z8vAqdpP/fsDc/pIb3R61V/SX3HarEs4Pu7bt+NFz1g/wFX0bJf7i+m2unAAvhebxw5b0OYHgQ/i9wLvf/vSTuRB/5/5XaOv/3uHaByF/fE4n3vMQlOG/+8UDVFHilTMGRxsQ/xO9B9vUzyWDRqwx8zPxkuN9h1pO9B0YtaU7GYYZe2SUT5gVTerzqziH+XPn3D6EFgluTjC37zqW8prh7eeeX/k517y5F1E3y9XT3kuhzP1Tuln9KqrgJ/o2GJ8zkW/dhqFohQ0+p3MK4KddE1xjmx/QE6BTndegmghlgZf1+QIjIPOT4gx+hmFGHRl1McRNVCE6A8rMzr/KHb5G1T6n2MEL9oq6M8SP55fcfiuFIZJ3B3r9hbz6QtX7XMeH6IdMKdiJfADJfk7jBeBz3nHbUKciRCK27HGP2RsdsXnh5xX1+tnjZxiGucDIqJsUWMpHlSAozO+tse/N5P/8X9/pegzBt0P8CO17owGBIOSvvH75Vn6uQMmhfnj7nnn9IDDenT963hJ+fI47b/8UzVcGgc2dyohxZvg//WKdK8SP6IhfYx+E+5cvCzeAikJUziBkigfNgGom1iRNw0waJBMmiX4hRf/g+4Nd/f1dJUUhkMgYHxxMSiETOLaURg+2l+PYYwGcv5rz6QTOn70N1+b8mfM9fP6YkULcSuCq4Pr9oDC/syf9kb5xLqHFvP7MbFKcjdNL/vxfLykY4vcCr99X+AuE83UK+IipC0gXhPLh9T+xIfM5vv/D513Cj888/8braN/+VzJjU0YJoiB28iPOGcr9HvGU90VEBWv6K5Tdn8D3Q1zSyDesYQZib9TF2wwpFqF7Jsx0oQJ2md+Z/8Xramhq3dwerGyI0iYYLYdJGCukMJuFmUYLZcJ/kii37gfHnlY3t0tK6qpWC2J85lhtrFkKkVSfe4YUlFD+STLzrOhX4tqvRnlUStllmEbPe29Xt4aCZYDVGq2miN2k7hbN1soTM00yZo0vtx/Oo31tlBHQZQpzbywtUlUfL4yS9AfqfBpJSWKGGkvC7jKnzq0aG/WbQh41TOo6fuxQiiqM8/qq79u12Ja5vu5rmz6dTo0Vo8nq8JkYn4DxLYSZtLeX2wCPUzzelPlqlh/dMP+O/e5GNcuXLsx7DebJlygvufMXr+Qlw4WivH6aMp/o5D7X5kJevU4BH3Glnrdvs1wZLIhcLPjz6+iWT+Y707d8sjkn/OCnv5rgWvWwQJ03r/CDI2900/x5M6kiZBL8UjRGSSTVzcmsWa+1s6S9J/oOtgc9HWVZ4vHegznlgDBLQzxjtQUWhV+X3actPq6mbWr93Pb06fOrgm4U9nEp02bUEvsQmoSgptyxK2AA4MYXrxu3Qt3pmu324LZhI3IPgMz+qUatBgWxndowR0U+jJQk+Wyh61AqGUNJrB4ywPTuoJlrI1WURrRmxhvdSCtmrOoaL1MjbIVRJ0XMHgs5o7z2uTUy/6vYuQy8vq6BuK9tvM6gabVz1VjMjSf6Xs5LpE1c2dRUYxhazuv502bHSDIirPMxSWmwEIvUR221jUcY35JiQzs6DPCpdUPXRn13UsV8d+LqAlQsm/+wEiQ/Fja5q86hA5+T+TMv8n0d5soXOLzkKCDRT3qEP2zJXl9YEZ+p8ykK8Pq9FfucwLB5+LG/yz1GsuPXbj+Ze7zw2rO+rXxfUOH+igm/iCVpTDM+ISjdprOnzPzjbKcyMq1hzmp1EdaESrIP6kbSFquraU6Mb2rx3hxKOW7u2ONqmqfWX7/K72YcFbQ/jtXUKDGVrZYXWsTArC6K6vXqpa1KVFcbZGx4r/eXG6lMYIzxmppnbMEqFaeRNq1+bgoFoMrlaSvDrE0dG2vSk7aIRhub+1wqFVpbigGQEfya1Uqs2oq6vuqcqwhX87SGuV2DH5xf7Pw+x2NxJZh66+/jk5Tn3D/8joxtACljZiVlu3/qut/Oa6O+O4TvDpYaR7k+BsUqGOY/6O/xO5vxwLN2VqZDOLu+pgIRMCX8XsIy9ws+73O8UkH74PmeugbOKQdvZ7/cfpXM7KfKfT+YwtjiTCUAcVECvccKIZbxuPaxhTB2WR5wCUxpmLsiNi7+KowJ/RbI4WNTN9UNSrS6LREskakN85ZhjOUS/TxwXEPsUTfxPTAwqEhwLfCZ1bnMRIjKMjRcZ3qm2HNpXd+6OLzAlWW4vog4dU9ruGEljVKmNcxbnTkfck1Zvu8wirLXR/e7A1XR2rEYjgY05HF60d7QNcLZ8lR4xb2oiAkNedvCMve9kQgX8clUdk4fcRlF4AXHEkcYBn4RiNfe6KGKERMV+KBMGAhflkOcAW7c8dpxCOmXTfRdGGJXMWKF10Do1E1oQ7kE34stWup99KZrfMA5U4HX9kqN0YW6iVvCpsbrNNZ0UN7wehgPokL39JwBUD/3GZ3rjfFPrZ+zqzLX11wPAaVRBM4ZxLlsgu/B+nduGUXh5yWuvigzKjTFr+aee/K2eYUrL8wPj/f0YaLBUy5xtWvzI1yOanj106+ga2ZeZSXF+Rbw0SBsHn+giEY9eccYOE29auxoKNTb9zvrc+BvzPE/4FmZIE90Wp/fGc4/4j0/yjDaecKdEwGPv4IJfkliqk4sVrOLyokKDWa9tTVUfhJWCJyoRfsFCO2rSARV6/slaKUSxmZvmDgMeKtUmXNWGDVeNU3T6jdN4yWTJBfH+W+lagwtO82jrmHg2OzrKyp6feUaJXKEsrMjHUSM1Dg36PYcKQ2cl7mthb7r+uXpIhIUfvZ6tN4GNPVTlGFw/qzl9YvsHLq3Nn/n/pddr4HwX6MMABgFWA2AJLrJGsbAQCmh/gCwVO/wkTfVWN+l117/bV6xHhuIP3CKvzy2I+/8eBMQJwe0Gh4YeL8ywi9Z+IeDStww4a1RpVCeKgRIJ3GqOqLgS5M17XF5uJgCjFN5+muizo+XkQSNrwkVCjV3DgOqqlNyWe/y1URybku/pyNlda+vXIOumMN2hTSA6CNiVOXvUcHverxSN/bet9/z3e71+L1et73MD8vvxNRdeaLvB7xq2xh44Wcp6/TmedPnT+W9Lmyt/s79k6xGPb4Jfud684+nxoiufLqsyy7ts8aKxMNzfeq93Pv0eqYjZk4Pmud/j+qv/BAxzHARrxu3kvoLe8fDKPoWWcHapYyUljAjBcmG1fHQApDirv6eAwUTnqzw/rAV2hIb/caXjf4kqUoM13dJh6n181ozol99HPk9s73fdSwEruoXu+5it8fqFN/JzudOdqrQ9z5L0AuJvh/eiICFCqN7CWu7i7Hd/PUrfDPprba/g6fC3zeE72eLEsk31/mOa0Az6tBbuQS/JDHDitUYCM2AiDaqR2ulkB3wcqhclO/YoQJUrOhnmiPJLvW73f5R0xepvKZJmuOM19YUnAe1vH0V0qaIY8ycv8y5tH+wDWOnSMhVYT0gMvkaNExJbnKVX2Mqa0yVSoAcZVh5EMKsXJRNg0x+T/60YbxSzXmChKiQxz99mvs5eP1LbtvlKtWrA5rhYH9nkR/577t9xxLm9WN8j/xwiuV5P3hLP9U5Qu2YkxeX3ZJ7jKI8UUG/AYT4nUsNrfc4kfnbO76GEGOFubAQJm0cjE9c49cXIEobUV+U4A/G4neh74D3qan117eSiK0v3IrYM1aS1xZ6PitUSdIdXkbUtwlTdpwosMxNhZubYiYyxmkZ6YI5/+lzng1aPmeMi+vPl6vzaC13C1mKZ7V3TqebhSGXKW++OXhPtHg+uKHgsazkuuKTNHFu1fXqUUaeZZAIoa6z5QSKprDXIRJxou9gR7nHhPNoCnoWBYQG4/EeonQiPigTpkFNhqBFhc/ZyCNr5EbT1+w5MA2RIpqY6weSSDar45xJGqZsjnwulCGGVRDHe3+Z+05VbI5fF6dHO9kTDbC8/tcftta+t97xBYrCjh8+NxTuz4bRvWAFgTfHIAiU0EXznF2r3s0ZL7L76Zzww9DYF9Hjtzrz3Xotmfvd95i888CMSSD67x07GOjRHe89tGZKw5x+g0TkjHV4oSd6Dy0Oeh5r85VQdcXM9Ku6N69CxYmiigLGlxbxVX5GiZfsHHObGu8aNd41ugYAihf5hUFB5uaqcxQl0n0H1+jsmf0s7fixjADfsUL0w1s8WzUPiiHESMG4DHNQhaeNFV6jD5GgtCEXB00/FDsmfM/PBxi3WVLqZ0PwORt5RDZyQ77v2XPTlf3Jngtzj75hbq5W/wY77Pn+0tPWK4zs2Urzp79Fe3b/o2/jHj8sQXU08JGvf9V3v8/dPODy4MPIC/1npyMAxvWAZv8AjA/GzLb/9dWM6PsYJVGRf3yHmAsH3GRxMwzb72TvoQ0IeVMErBu4usmE7YebkLqxRCqAk2icP8NvezRREGtPHD20WEf0nditkzMhdo13QRgUeQl+z6F/SQg4jzoi7Yc91kGDZttTK0LSNp3jJa6c2xR9GkK9hylb0Ea6UJEgjAvfqbRhtKBSnvP12OZN5MuNqdipEUl3wbjV6XRpnzNTTTPQCCaKkZs5B2Jx1O975lwcaNT9rmNYzn+DI174gfz1l2hm3SuWWL7S+Sx17PyOrxGA7P7HV3/Zet5+DtMFcsC/LgA8628tPU5RsEP/D/9oihWtkL++NzfXj7A9xuftMwAg9o8/+mX6t9dezIy/9b9Q7RtLyyL6FvHiljQyIxWZ0m37a0p6liKBY+vdZAaNeDuVSDRR0PN4C4FIiO4NUZL09R5NrShHNIPLDwhp2vhgNsb7Xh+MlnBiBq2gCNiiHaUqYEZYXl6ZEVmhxjhhdqHvTFHefmbKoJ0iAsMEBgONUKKci7RBLWG5HIWI8l3Hv0G7NkTVhd+7Nt7pcReab4f42412bI8ZIrvt6Sdo4SebrW0pFRVY/tmh+vnW3LlPcx4nKIPrDN/rgtD/x79xhRXiN/cvzgk4DI7U7n9SBsgqa1yIAthij2WGVs2BgcNk/t8W63e5ECz8FxRqXnub7r6mEY9044hy7IzXTz1UArFxMa0EtFI8aC/WDVEjEgKv36/yoKGRNIiSqaVU2bPp7+nqz9zAw4nqWQ956tGiJzYQWXVNZhcyQtHPIqq3b0V1ShA8GAzOiMSIQujWUxBrgyIoUcB3R/dc2BEuZPUXkxUbyuS6ib7bvWvjo8xnQ8TNPddbgm6DQjjbn17n8vJpcMDKDYCxoAOK5hx6/JjVBjeKAWCH/nf8S48Vspf//kLuueWfvdMaF6IAuQJDGBc+w//7eEFPP3ClAwUXHaoLON/M6ARduHT3xU09SnZ7lGMDNf/YQyUgSK+9s5GWi6mcpEkz5C/ybtQqEqBzPhOolIZKdpeq8DtVAeVNNkfZH/X/ixV9XWLpWHOU/ctl4CEiUdbVLWUARbJ0cmLKaeSCtJFeI7WM1UyEC1n92Lnsmf0NV17qu93X4w/IYAdoVHM4W9Y3s6a+L+f9iykLSFy+MNN9D5zrJXl8X0aAlchG5f5b+zN9759LWGv4dYAQr9g+jQ6/PUCP39aWqeF/2cKhlr3nT5HEmv93d+cy9/E5d/wic3wU7PE2LXKeB+9Kh6CoSKK2YsJfEcOQKUzUDmLwUKXmv+Oox1ZzkEeLLT2Sne8MFUUszzte5ja1CG1PmzEnFZoBbdAi8iyLU8K/V2iMG8DblTFqQ7e9KrTd1TKiAMRFedXtVHGMRZF2l9rz0uGHUp6uKCK5tYJoXR9hmmWdqkDUaFrDnI1hq3yQgIs8nLJl9aNSn7OAzOQAIfIK16wr3T3mvR3x8PjJ5zP3M2yH+Fsoj1m+vcP6KSd4j28tO04PKCMgigEwlPX/G6pXIfxCUwwoU2x/pvtVlMEp/N7eBXkef8C6/sl1LPzMyCNWE9MTT6K2aQ2lN9PJQ2rtkvRWHRSm6KCIc+n5bXfRPlV0qW17yaRUOTrvCYGmWZpmWBkFthCRxqRInz5fdIjfi2kMtgtzmAstOdGrYdCPVsnKUCzr6gQVmUsIje97PP3BYnj8PeWo3nfvQ5tp0zfvyYl/UBW5POGv/0CJ69DjzjfHD4k7uUv87vM8V0mKMQDs0P9jt58sOM7djsY7szwd9/IqGXoq9R0JaBw08yPJ3N+dB47QvgOH6YF77qCSEaXN7zJjGyH0vObhJlarwtX9lBMkiPTUGXM6lHBrztfmk2mfCiFQEQeDVivDBlYGig5tK7aPOpH++UzHYimqChGusfr8USNOhbA83RlzukbCGn8r18HU0tIEDF0qN1LP+FKRoGsNMuVRKpF1m39gic3AaXfI2k/8vU15vHPqXmFDK1o7AfCnv6pIE5qC2AYAEgCdLXODsEP/yPoPwplLgFoCTjo9dQW879nr01Fw1lXuOr8onoRrsmPXHioZU54ihikSdZNJ0qhA5nmMaTF4V9nnkLMtVLMd+PZEaXObiJZH0F/puX2A9eRR9lce6a+ozEgpy37MYogPxkeFkauuQRLuZQ+VAMTlic07rb9fe6Pb9dyCeR/N29/bY94rbF7DAKFu2+uFqHZqFtwpNxgnxB/L/3QSABH6n/PwdN85ebwex1py4/t5dQT2veX+fE6PH5/fOxUAGjwGlt0gCVGYfQdKbHEs2eNnikeFgWfQKEAII+ndBm8ys569Qglkjj7qOgZAXEj9cLakSuQX5BEfHExG2V8apSWK+mFIWZXPGoaMcn2GEfWdU8IvzR4qEgjMV785VIr48G96XM/P+kij7+s6HeLm7TGPcL63Pj2W3NkMh9fvBMl/WAGgYwBA9BevvzyXyOcEr924zF1DAMLurCSIfZzv4Sf6YOasa1yPjziuw9Iv/m3edYmEwcLPXPgocfc1UOA1Z8SftJdARiXX514ZAOVYHjiSkdK8YHOGDBodwo8kYKNYjw6iv2jpahoYOJPbdtjj8c+62l/4vWVyncIOdnjm0yG2tme8U4noQBHtcsuNrgEA8Ufo/4nnw78Tu7vcRs18zzTA7gCj5z/Pm+V6/NobPbm/T50+Y4l/X7FNfNLmiLCmGWa4sCvGoWhMJZeP2a1urT4JDFM5lPAPFhcSgqfvFZPDDsEBs65O0uS6fLHyCphX+L3PIyqAsDiAV7xlj0+3vGECBgDC9pi3L1T+98nnEoGhf5udPgaPk863/Kc5ZjoMLFwT73WxjbSixF9wVj/DABSNQZlU5bUuznbhq8S/jYSadtiFHu5UAgjn0hhB+kzTMIWJi0sa++WZ3v4oXfqQOLb75wfytsO7xJzy/HkzrcdY0jdThfu988wQP+eyPcyfQzRtTx4RAazdd2a83/3xgVyNfMyfL2+JVme/kuBz6NQAsEP/WMLnl/XvNApwzAWO/Ac85xfqX6DO9eTaIUPptYCwPkR/6RfXUcf3HnPtH0K/mNTIHj9TNNo1AETp5W9LQUZIOkMDI/XLWgFgVf0zqFndP29Sn7WpXMvKBMkNKuy/15n5j451cTOt9Xq/JYqVIMqYgCH1lndGQV27a0WxhSbKiEmifwQMQ4uM0gir+5FWeAmCbyfz+dF54HBO+MEtN8/zTTBDOB9esg2E3BkOh3jOqj+ZewwhvEN5/dgOr3/dCwl6/LaTNJLQWQJoh/77TsZdnx8gcoAywDCAdMP8C9X5de3nY5DZHP5NNy374v+kju2PkRaCWPSZEsGcbvjU3KAxrq2/e1/JK4yqTXZtfsp+nGm9e77JWsZYmjGQiNfUIIGqxd6AKQdrSaAm8UnxJhWTSFFF+aO6vjXae0tB11K5GSFLRtOm0ROPhe+nDIS1pmG00zCSEX4s6TPCbRVvMp8fWNb3gOPxkr9ooYd9XgOv3Sl86JTnEv5fTMoLn3/tMydp968nWMKI1y/82FmXVzxS0DEAEPrHZ3T2CcDvB2/pt5YC4rVOch0BPdzyCbfwd4Zk8eN5GG5aa/zTI2OZDDN6Qca1zvJiFBVRvzbQKCe7hA4/uZoAiAoU1VMefdTVa52Ff9A3Qeq2exUGChClqIJg5cPUhrn92saNoKZyRiKyfRaSNBKoOd9DZrgRpP5N3HSyZ/8aGkYyprg0O3R2fthnXt8LhOWUYz0/wv3OCICNd2ke5vHvuPF91/Pw6p1gHwijzV3f/VDBOfPhxlkDwC8B0A79O5P6YAB5EwYx9eH3ORdcN8NVKwHnXmcev/ft90gL00wRw5TA+di4lNaOUkQr+zqKgHBbzW6OHmoZNGJWK1Xd/ABvHwGTTP1OjEK2VmWVgIw0TZOI18XbqExIIcpa/a4UYARpNbTKGj80jGSEXzPBb/7cmTq70Y4fv+R6fIsnHG3zpCfT3evlwqs/7JnXhjDaa/9hHLQp8R8JWf6FsJsA+a0AgKC3bfmQK9rhTerbEZAzsOT2T7v30yzYc+fiFq39KF3pMCFzoaPdQCjr3dIFDs4HuqmhHavOefGGxq1SwhHIThdUFDXGvZH2J7GiHMIXtVNhNdA0zBJ2l7zhwlJMJPhl5/kL4g0rB7H7Rfc8M8L9ftn98GQ7PevWkcTn5BGfCnjtn/99TkBR8GfZFv/ywCONQksAEfpHuV+vZ4/HO/3qAFx2MS1svtq1rVOjWE9QBCYf2WV9LximRARJrZah0hDPDLcn5Me0hjmrpzXMi95vvgCZdqxmaG0Ab3b+YHywK9JqAhhUJY497JpEbguNZYu1NSWPKTaupgylScuLvmEmVwxnzYYhV9mUoVYbwso6opGpFT8kQhCbu5d+2ndfr9eP7HjnvD6MA+/8NkL+CJ/b+2GfkeT5YxyP/HCKb+EeYBsASE50GgAwYry1+oPW/y+YfyNNvuTy3OMXlLGlE+ZfcINe1EaZrpGseIYJYtDQuxlaglBXs6cc4o/owbSGua+iIl4px5taP0+F2sUadaNeo1thT5diagJkwsl6hpTjndYUI/44b1Pr5+yK1dW8WkikrLyGqKsyBK0sZclirDb+jBgpc/sOMK2jaZihpfOuchm6UxrmrogSMXMIv9587gJPsZggXvB4/cuXfUrL6/fO4wOIqDfkb5e9tcUfWe/IiB/uOX973h7GCrL34cUHGSSYtrBrAAAYPd6mRDsDjIcH7/mM6/GWbc+RDgtv1ova6OZ9MEwYlnerLwxNlviX4A1ZImcIeINNqIgH4VKC/UzUY1r7CzMXKrcr7EWtsR+EQeHz034iMmgMboheQyBjuOiKA/bDeRNCtOJzw7sudP6kKSJXNlQGTPu0hhsihbwhlDj/GBeNUCIYZiV/163z0TB3vYHEWPWd1zVOc4okahtT6lsW+mWCgOuw48d78pL8grx+CKQT5zy+DebB8zr7KZF0ij+e/5LnWNUGQm33G8C4UJbXW2/AaQjYNQAQAfAu7wv6LEvUHL0zqQ+evk5Nfrxmid78fo/1fWCYMjEo4lH6jzdBaCAKUTwiVLzDjQ8i59yeFew2NMbRNQCwD8Zgddjz4qixDyOjGIMC4qX+bArfW+QtcSzO68+2DVbigPee0jBnJcTdbrKD35deObfJ2o6xqf2cHnVO/AOuB4obFVfV0Fyve00QfYExotn6dtiIaJhZ3/ViDEnbOFN/5ownZ/nnQsd0K6mU29SkUsEe1PYccZjQoJjP1m0/cS0bg9GwdftP6NSAu1IfBBshbafwYR7fOedtJcGpcL5T6AHE/6WvvGN52dgH8+fDCUT8heySQ3wGb1tdbMdYYRzAuEGEAx0IvaKPOX+/6AU+u9fbR0ElHRbM0wzzC07qY8pLZg36nLXqy6UVcs6Ijrk+VhdfPa12XsoU5l7DpC4UjLH3qTmfTpCRbjJF7CZ182r1FWnvcTMGQJu6KbYLdb9zLpVzEquJrw8LJWeel2vU8VQofW5XpuWuuVdI0e8dp2mYSUGGGic1RREuKaVv5A3iEjPHLVMGQJKiot7fyLQKJhTfsWoDqN8yZkUhrA/m/7LsVAw1tfgux5PpVSSMXRQR5zVRD9X5kz32+cvURIhdq87rSjFKauFbSxzr56pzQVqJldb3KCPWq9V3aG2hls0w0AxzsNXAKhgYoBrHNCR1nD9/fqPzmB7hR3g3VlD4wYNKzFuXPhq2mwo/P093L/t0rlKc7fX7FQCC0GFdvl2tD4Joi78NxBKi6RV/O+yP0LhO57xKA+PD23zI5t7vTctFBOyeBfd7VjPYhpAfn//skjxvXzeb32swBDKYjhy2Y5gwkM2uRAbL9jQ83QyZnvay1cCytqxQ2UirWEosq1PRaqZZ2eDCgDed8j6HZD6iyKFkCHqTEveVGIp3nIKKyz9Kx2Ipv+0Ql0Ry7uK4Sa9SdWkKEn9UNJw2Y04qUq0CB9kM/Tb8kTt/AudN4ntAowlEQKbOmLNIGYHa3yNbrJURRFMb5qiojoqgZKPwSPI0leEjTGXsFjDO/I4pBa1UUQXkujTa18z1bcyE+8NbHFplYuvCy77aXr8TiE/9lf5Z+AjnO8Pg8Ja9Hrwt/t55c6uyn08Z3EoSNHePcXtF3/b0f+ppxPO120+6ogL2fn7gvHkL70Tx9oPOuwcO8zMVY9CILa5koxtdhJqFO957YI13O5KkMsl8IwGxNlsQyBfkTqBxEFWfpnhtja9nPygGq359K9QzoWTSYrDopk7Z6FUmOqR+ULRJJ6IVfDy51mmo+SmXVoGIoPl6L/D6vdnmm755j+++8HQf9izfg5h7w+AQ/yiJfBBSuz1uqZn/eP2Wl+qs4+kuI7QT/rxdCeHpe5cvwtMP+lze84YSvLre/hLdtfuY7mGYCjHU5nb4xF9I2vbesYMrA547NRIME4xh0JiwIWw/eJYoCETVxlomOHe9dzMiEdW9vgKO6oi8Z1X/XAQh1qpom+u7lK+CH5gbdJP8dL3+ex/a7NoG7/Pupbf67o/kuCd8lvh5xd8W0843/TvWOfeD4OIHSYTXPzLdSpo7HNDbPgi8HqsL8PpH1W/7mGHvb0co7PB+oc+E6Y6g0rzLl92aN0ePpjs6REjqU98Is50YpoIMp/hbot93sC3oeQhpZmzDJyY4LxhDf09Ky5PFFIoKA6+qpueL7oSDxkRfg6Na1zdjHBmLlTc7Ij1+MPyGLkQ/P7KVJ/yZoi0y1OsvlKXvBev6vc1jHrz3M1bbXj/8BDBI/P8iRPy9RgQ8dhgXN6uIAdrkIgoQ5GE7vXt7iZ43YvDTXxU2fvyK8vh9Fhw7aF4fwv34A7e5tiHEr9tmV3tuX1C7uLixhximwgzdEKspsHJVIdG3wdhO9B5sQ3ndahsAQ6IfHOL3AyWB00ZsduXFFsaFXHXi6KHFhQyTiguelKm0MWF21PM0HNjnopodKHGdMA3kJ/rAP+5t6nl9ul4/gNfvXd63ffPfBL4e3rV3DTsEEwl/3uVxDQEJfSiGs7uAMNud8mAAIApgGxB+3n0QO0OmD5zLEjFu5Cx4RR/HwPv5UVc3kZ7drgzreO3QuJXgF+qQ6CSSt89JfUwVsQUWN6iKCpYSiUGDZnvDnWG4DQBzY6VFFXkHpYhZZrwHGjO9ACowVktsY9rn0TkeKity7fG+Q9oRkZGAVar56KGWqkzLZK9TZhrIH19XF8ld8lwv1vU3UwEg3o8/9Nm8UL4fCPl/6aFNtE2JvQ1Eadvm/xG4QsBex+5M2lt47VnX8j009gnK5EfzG905fYgvfiDOUfIAYFxs2VOXJ+Y22L74zcutMfot78N7Fqo9sPkb9+Ql5S1aql+Ea3NAPkUeglIjNalPIuHU0Gh+Ye0sQpNTI6NpqYf1dDelucqo0JKkSh5bmLJdCM2GTX84f4oikr1BtVvrjoVYXdQSNT/QPEbS2qAle7pkhRg5AStRK4CEgaI25WsOkx3neyWO0wah/0TyxnYs+xJkrCj5fJZ4Hu3xxMz0GvVwUZFtijMGXEys6u85VP5/41XCeS7K+h2ibCVIKdee6DvUHrZv4KIAebq7mWIxrcyxRUq4dQrIgK8/dBfdvcw9v4+qcw8XaPfrFxqH4GJK4L9eG9yaF558NSr5YR0+jJEgME4k8XkjFQjvB3n6ACF6vyx+XW8fnv4mXeFPp1s4m58ZCaAwiTREm7o93RRZtCBSaBpjUup4mYTUj0SyORFLn2klQy4iaTRFGSfCsEIZs6agZ01jUnulPdfs+WwVQl6rs9QOHebUnSolSf6q3OOLfN6y13PQmLSh0ucpkZzbVJNON+nsi66TpU4zYE1+3Bxsk2QsK9Y4s6ZelGMi0rQxyve94GpA5fXvCfP6Aebwddb12+zpeIpmfSTp2hYmaH7iX4gjfZnmPdUQfgg6hD9KDQEIflAiH/ATfWTw60RXrDGpKYLUrif1lvDB27+4QXM+gGGqB4QiPvh+k4o4JKUwktimPJsZ6tcpJHUpgeqPSbP/fCymvMCJPcMV/i0wTiylOjo0ztIFo1QgcPFBmZBCJuwokZRGz2Bc9Ff7HNrnDX/j3A2NBQV8xvePpnB+KcAIQLEiFU1qzhholPBbvqeuWY+UogdGWaag1aSuYs5RYeGP4PV/9RvP0NbtevXiIUaYt/aKUpj4I0zu7MynA0LpqKTnXT9fDjB/D2NkfkDEwQ+7rHChvAE/0ce8fvPi+2lg4AzpgCkY3fLK7O0zDMOMHULr/8izvSjU0Bq2H+bwW1rv1840h+jD87er+tmEib9V216J7ZKIxXr6zjbSL86vUMffSX3HfkfFsuDG62nhJ2+iO+r/nuoGfx3ptcg5+NL3phXMIQgSfczr655bLPvr2P6Y1r6ZTP6G4SgCwjAMwwwD4cJ/rjtJZgyNEUITMqKG/Gd9pJE6vvdYZPEHSPiLUpffuEHZL1MXZMa5/2Xa8cPn6YWf7VUe9OnQ19bV1dLyv16iRP86S/gtzvWRub/V+q3DE2qe/8nnC5/Ccoh+UDQlEJFu5CV8DMMwY4fQ9PWMKOh1goKn+fhD+s4jKs+1/tWjrmV+AAK47dt/U3CpYJS5e9F4d070rXEq8d701KP0ameH9Xu+LeYOIPbYr2Pnd+jfXnuRHlz5uSHRBxfXk/jYJtJlsiexz/1eE60kvFJFHxQqiZyHlGtZ9BmGYcYW2p0PVMi/m0K6VdlEyfIHQZ5/IeFDuP+BWzVyGpRAGzd2WL8LjvmOL9A+FQmwgXffsfO7FIbl9Z/cF7ofkg1RZtgLRHr7tx+0zoGTYkXfazwUoEdMaGgkhmEYZkyhv2A9ndZ25bcrb13b66SM59/Sel+eyGXyAJ70LUCjm1An4OmHiD5C/07Rz2x7JW+b7/GvepB0wJI/73K+JZ+eQyn1+coh+jhGBNGPdD0ZhmGYCwdt4beyvk29kD8K+2CeWbeqHwgSOxwLYXD8OI2JazyFcALH3bi84POHX3+T7r3PPxHuHrU9LBFQTJ1PFK8jHezVCAjto2rhpiceojr1+Zx0HjhsZe9HEX07aqCNuo6cxc8wDDM2idTkWP6hO0HjjD0khFaRg4wnfz9FwaoG+JW7fL18iCES/3b/9EV68+96ww+GMH+L22tHMt+pgfep99g7VoLfjh+FL0FcctutdOftn6L66VcoY2aSNf/vRP76SySP7Qg9zpe2TaPEf1piheS9gg/CChn5ETmZT4X46eL0bCEax8T6WIZhGMZNJOEHUbL8QZSiM04KzVcPnHyXat9+guTxVMFjiMtvIXFdu2vb0s89QLt/ttd3fwj65qceURGArynjwD/bf7LaZ8/uf1RGwJ/ltsmeLSRff4QKkrieTl/2BZp8xey8pwZOn7HqIOi22B0abyay4p0qKAhn8TMMw4xpIjent0RD6DcaiFQ21gE8++tu/oJvyLtuyuUkrnmKjNlbLUENpNbdxnbd+qcDRR9CnlKCvvCTzVYmv1PYncAguPc+z8e/uIECUePDOPHjJ/pWaF9FRaoi+iRXsegzDMOMbSJ7/Dby/aMbyBArdPcv1vMHodnqf3yHZPdWku/+xLVZXPWA9QMwV3/dgkV5L7XX6H/+s0tcIXzsD0MhaK3/crX/46u/nHlwcl8mu98mXquiDbeSuLQl0DCBl79u007asv15ikpRoo95/UkzVhLDMAwzpila+IFuLX+bUsQfc9gwAAq2mB08bYX/5e+UAdD/cp7wv/Avey2PHUKO+fpZM6+iaz764bw5ey8Q/8NH3rReh30b6v/MWtOfiwrYwq9EXlzarET/0642ul4wl7/u2z/QLr/rpEhPv0tMmDGbGIZhmDFPacKPZL+L1Hy/5vp+YBXtWfqoEuCzVAxBpX7zUFEAS3xrP0oV54PjRH/6fUGxB1HLGnspIpEPqKmZdAuH+BmGYRgQeY7fibiksR+iQqTZK50y68337HoqqnjlgGgeeaM7fMfxVxBddBlVBeOiUNG3KVb0cd5Y9BmGYZhSKUn4QSbZT4m/JO3lYbbnuvAT86gY6q+8VG9HU2+tf8mY57V2m+yzhE+H5ctupWe/F1H0cT1Y9BmGYRgPJQs/sMRFRhd/FLGJVG1OA3jUSJyzkIOZn0pj/sn6hffF/H0hohQ1wnw+2uui/0FdFKMB10Gy6DMMwzD5lEX4gZjU2BVV/AES9lCWN4o3W1c3KfC53rffo/8wd6mVRwAR3rdvP1UKJPt1/uIAPbHpn6z3w/vufvFAwdfU1U7SOjZC+6ldTypv/1MUCVv0cT0YhmEYxoN+izsNIDbyXPdskjEsSk/qvs6a91fiv27TD2jr9vBKeoUS+9AhEF41WgR3ZhsFIRMf2fuzPnqVlc1/zcyrrG2z1DYd7Gp/h1//LfX2vWuV+cVP77Hf5S31K7jqQBNEQWAQRYZFn2EYhgmhpKz+IKzqfhHF3wZZ/0u/uK5gEtx7v/k/BY/x1W/8gzIg9NfH28vyUJUPPyjnaxNWq9/LKy9+p2D0IqgoEYDR4u1JEAFO5GMYhmFCKavHbwPxUeLfUoz4w/uHeGLNP6r3+YnkqdNnC3r9t3zihkjCb4t7H0UTeS8Q7mJEG6/5uprHLzbZEev0SZiLWfQZhmGYMMo2x+/FEqE/pWfrdvTzgpA5Mv/9kv8GVNi9EBDgmVcnqdrohPkHTg+NHcl7+HxozVu06JtyG11ssqfPMAzDaFEx4QdY52+ViZX6tf2d2NX6EAGAqEbxpu9sLX2uPQoYm47wo3CRLfivqs8V1KlPC3Ve1flt4057DMMwjC4VmeP3Q77f3URGbBcVMe9vg7A/EvZmXd2opgSSBfcttUpeVDA3Hyb8GNPunx8oRwJgD6XTd4naxhQxDMMwTASqJvwg09LXWENCLKMqUEpvgCjA20dUokqkSCjR59A+wzAMUwQVDfV7gViJiTPayEzfRRHK/BYLPOv582ZSpUFiXsWx6iPIVWJCA8/nMwzDMEVTVeG3EZMa2zNlfuU2qjCbVQg+SrW8qKCcbvHZ+NqkyEjPFhNmbCCGYRiGKYGqhvr9UHP/bWrufzWVMPcfBvICUFHvtTe6rbK6h9/ooWJAUh7q7c+6OkkNKryPPINblOgXnZwXDs/lMwzDMGVl2IXfRp49ulINZwVV0ABwAgOg9+3f59oDI/FuYOCMax97FUHDlZeqqMHESgq8m0xYfyNNMDdwxj7DMAxTTkaM8INs8l9bNvkvSWMNFnyGYRimwowo4bcZcwYACz7DMAxTJUak8DupRg7AMNJjJTiy4DMMwzBVYsQLv4083d1MRi4KMHqBdy8oRen0Rk7aY4hhGKbKjBrht5GyO0FnqJVisWVKRJtp9JAiUz5LE8129u4ZhmGY4WLUCb8Tywg4rcQ/ZrSqSMBNNJKmA+DZG9ShPPu9NJE6WOwZhmGYkcCoFn4vVj8AoiYSRrP6fa0yBpqoevRkQvjyVxQzO7i6HsMwDDMSuaCE3w8rN0BSQkUFlEEglDGg/pZWZCBJ0UEynvLkRZf6fYpMs0tt61IefQ979AzDMMxo4IIX/jCspYNg0GMICBWqj1FGzMdTPws7wzAMcyHw/wGSpeHlLg8lwwAAAABJRU5ErkJggg==;" parent="1" vertex="1">
          <mxGeometry x="505" y="759.7400000000001" width="92.31" height="24.26" as="geometry" />
        </mxCell>
        <mxCell id="KDZLqLgYZf37Dj3iUJCh-68" value="+" style="text;strokeColor=none;fillColor=none;html=1;fontSize=24;fontStyle=1;verticalAlign=middle;align=center;" parent="1" vertex="1">
          <mxGeometry x="535.4599999999999" y="789.0000000000001" width="26.19" height="18" as="geometry" />
        </mxCell>
        <mxCell id="KDZLqLgYZf37Dj3iUJCh-69" value="" style="shape=image;verticalLabelPosition=bottom;labelBackgroundColor=default;verticalAlign=top;aspect=fixed;imageAspect=0;image=data:image/png,iVBORw0KGgoAAAANSUhEUgAAAQcAAACbCAYAAABveF4rAAAABGdBTUEAALGOfPtRkwAAACBjSFJNAACHEAAAjBIAAOg/AACF9wAAjMoAAN03AAA94AAAKL5YznkDAAAXMGlDQ1BJQ0MgUHJvZmlsZQAAWMPVWWdUVMuWrnM6NzQ5ZyTnnCUnyTmKSpMzSBSUICASVESCKCAKiCAKRgREQIIoIkmCIiAKCCgqBjLIO6D33vfWzPyYtebP1FrV9a1dVbvC3mdXfdUAsC6QQ0ICYBoAAoPCQ60NdXgcnZx5cGMAA7gAATABKbJ7WIi2paUp+B/T8jCAdsqXEju6wP8u0Xp4hrkDAFki2M0jzD0QwfcAgHXcQ0LDAUCtIvK+qPAQBKOfIpghFJkggsd2sPdvvLiD3XYxBr3bxtZaF8EsAOApyeRQbwBI/IicJ9LdG9FD0gMASxfk4RsEAL0jgjXcfcgeyF7kI23EAwODd3A7goXd/k2P93/odPtbJ5ns/Tf+vZbdhNfzDQsJIEeD/+sUGBDx1xh0SKYMCjDfsQ0Tkuc8yHomSMmB5F8hAbs2Q9pAbJ5BdjZ/sHiQm7nFH6zhFWpg/bsvZBkSrrODkfVBXiHhlrZ/5HExPrrmO+MgOMczTP8vPZf9yMY7NqNC8J3QCGs7BCN7ALWERdroIxjxKGg6xsfW4U+bnx6een/kMOzla2D0B9P5hhvtjMWA4D3+wSbWv8eCFYEJCACeIAKEIr9BQAKYAl2g9+dXAngBMlITidSFAX/wAcGBSI9gpE8wgnn+tNP9LxKD3X7eSL//1MgD3JF2EX+P+Zf0Hw2+wAMp/5KT/9TtzC7skG/iPyP8u77dntJV0vPSm3/VowXRsmgFtA5aHa2BVgE8aCY0G5BAy6OV0dpoTbQaUqeCzHJ6d5Z/5rijP/COV2R+cLSqvc+fNbj9vQL73da+/+2K/sy9Z+HBwt8zBOGeR8J3HEg3OCQ61NfbJ5xHG/lyPcV5jILcJcV5ZKVlZMH/p7QTs36jH9a7sQhi6v1HRkZikjKyIKLOP7Jg5BupzkVc/MI/MkHEz1lVALhj7R4RGvlbthNOkFhIBNSIh7IiMZEPCCP7LAsUgRrQAvrAGFgAW+AEDiK77YP4YCiIAsfAcZACMsBZkAsugmJQCirATXAHPACN4DF4Ap6DPjAE3oBJMAM+gUWwDDYgCMJBJIgeYoW4IQFIDJKFlCENSB8yhawhJ8gV8oaCoAjoGJQEZUDnoIvQFagSug3VQ4+hZ1A/9Bp6B81D36F1GAVTwgwwJywIS8HKsDZsAtvCB2Bv+DAcAyfDZ+B8uAS+AdfCj+Hn8BA8CX+Cl1AARYFiQvGiJFDKKF2UBcoZ5YUKRcWh0lF5qBJUNaoB1Yl6iZpELaDW0Fg0PZoHLYH46T60HdodfRgdhz6FvoiuQNei29Ev0e/Qi+hfGBKGAyOGUcUYYRwx3pgoTAomD1OOuY/pwAxhZjDLWCyWCSuEVcLuwzph/bBHsaewRdgabAu2HzuFXcLhcKw4MZw6zgJHxoXjUnAXcDdwzbgB3AxuFU+B58bL4g3wzvggfCI+D38d34QfwM/iNwg0BAGCKsGC4EGIJmQSyggNhF7CDGGDSEsUIqoTbYl+xOPEfGI1sYM4RvxBQUGxh0KFworClyKBIp/iFsVTincUa5R0lKKUupQulBGUZyivUbZQvqb8QSKRBElaJGdSOOkMqZLURpogrVLRU0lSGVF5UMVTFVDVUg1QfaEmUAtQa1MfpI6hzqO+S91LvUBDoBGk0aUh08TRFNDU04zQLNHS08rQWtAG0p6ivU77jHaODkcnSKdP50GXTFdK10Y3RY+i56PXpXenT6Ivo++gn2HAMggxGDH4MWQw3GToYVhkpGOUZ7RnPMJYwPiIcZIJxSTIZMQUwJTJdIdpmGmdmZNZm9mTOY25mnmAeYWFnUWLxZMlnaWGZYhlnZWHVZ/VnzWL9QHrOBuaTZTNii2K7RJbB9sCOwO7Grs7ezr7HfZRDphDlMOa4yhHKUc3xxInF6chZwjnBc42zgUuJi4tLj+uHK4mrnluem4Nbl/uHO5m7o88jDzaPAE8+TztPIu8HLz7eCN4r/D28G7sEdpjtydxT82ecT4inzKfF18OXyvfIj83vxn/Mf4q/lEBgoCygI/AeYFOgRVBIUEHwZOCDwTnhFiEjIRihKqExoRJwprCh4VLhAdFsCLKIv4iRSJ9orCogqiPaIForxgspijmK1Yk1i+OEVcRDxIvER+RoJTQloiUqJJ4J8kkaSqZKPlA8osUv5SzVJZUp9QvaQXpAOky6TcydDLGMokyDTLfZUVl3WULZAflSHIGcvFydXLf5MXkPeUvyb9SoFcwUzip0KqwpaikGKpYrTivxK/kqlSoNKLMoGypfEr5qQpGRUclXqVRZU1VUTVc9Y7qVzUJNX+162pze4X2eu4t2zulvkedrH5FfVKDR8NV47LGpCavJlmzRPO9Fp+Wh1a51qy2iLaf9g3tLzrSOqE693VWdFV1Y3Vb9FB6hnrpej36dPp2+hf1Jwz2GHgbVBksGioYHjVs2YfZZ7Iva9+IEaeRu1Gl0aKxknGscbsJpYmNyUWT96aipqGmDWawmbFZttmYuYB5kPkDC2BhZJFtMW4pZHnY8qEV1srSqsDqg7WM9THrTht6m0M2122WbXVsM23f2AnbRdi12lPbu9hX2q846Dmcc5h0lHKMdXzuxObk61TnjHO2dy53Xtqvvz93/4yLgkuKy/ABoQNHDjw7yHYw4OCjQ9SHyIfuumJcHVyvu26SLcgl5CU3I7dCt0V3Xffz7p88tDxyPOY91T3Pec56qXud85rzVvfO9p730fTJ81nw1fW96PvNb59fsd+Kv4X/Nf/tAIeAmkB8oGtgfRBdkH9QezBX8JHg/hCxkJSQycOqh3MPL4aahJaHQWEHwurCGZDLYXeEcMSJiHeRGpEFkatR9lF3j9AeCTrSHS0anRY9G2MQc/Uo+qj70dZjvMeOH3sXqx17JQ6Kc4trjeeLT46fSTBMqDhOPO5//EWidOK5xJ9JDkkNyZzJCclTJwxPVKVQpYSmjJxUO1mcik71Te1Jk0u7kPYr3SO9K0M6Iy9j85T7qa7TMqfzT2+f8TrTk6mYeeks9mzQ2eEszayKc7TnYs5NZZtl1+bw5KTn/Mw9lPssTz6v+DzxfMT5yXzT/LoL/BfOXti86HNxqECnoKaQozCtcKXIo2jgktal6mLO4ozi9cu+l19dMbxSWyJYkleKLY0s/VBmX9Z5VflqZTlbeUb51rWga5MV1hXtlUqVldc5rmdWwVURVfM3XG703dS7WVctUX2lhqkm4xa4FXHr423X28N3TO603lW+W31P4F7hffr76bVQbXTt4gOfB5N1TnX99cb1rQ1qDfcfSj681sjbWPCI8VFmE7EpuWm7OaZ5qSWkZeGx9+Op1kOtb9oc2wbbrdp7Okw6nj4xeNLWqd3Z/FT9aeMz1Wf1XcpdD54rPq/tVui+/0Lhxf0exZ7aXqXeuj6Vvob+vf1NA5oDj1/qvXwyaDT4fMh8qH/YbvjViMvI5CuPV3OvA15/G40c3XiTMIYZSx+nGc+b4JgoeSvytmZScfLRO7133e9t3r+Zcp/6NB02vTmT/IH0IW+We7ZyTnaucd5gvu/j/o8zn0I+bSykfKb9XPhF+Mu9r1pfuxcdF2e+hX7b/n7qB+uPaz/lf7YuWS5NLAcub6ykr7KuVqwpr3WuO6zPbkRt4jbzt0S2Gn6Z/BrbDtzeDiGHknevAigkw15eAHy/htz3nRDu0IfcKah+c4o/CYVcPmCktIckoU9wOyoJbYPRwgrh2PAsBG6iOoU5pT/pLFU99QKtBJ0nfSnDFJMoczRLMxs1uwNHGecP7r08ybwv+Gj5rQVOCz4XBiJyol5i58W7JFakhKWtZBJkq+SGFGBFGaUDyukqtarv9pLUlTVcNdO0bmuP6eL1FPXdDc4a1u2bMIZM+E0NzfzMMy3uWb6yWrVhspWzs7APdDjtWO303Pnd/kWXlQMbh4ArkczqJuGu7WHtecjL05vsY+O714/HH/KfDGgOvByUFOwTYnlYOZQnDB/2NXw4oimyIir7SFx0QIzTUaNj6rFKcYrxKgnax00SHZI8k8NPnEjJOVmWejetJb07Y/jU29OzZz5nfj+7lLV8bil7KWc9D32eMV/8guFF94L4wvyi6kvNxc8vD14ZLZksnS/7WY66xlghWqlz3aUq6kbOzTvV/TXfbtPekbtrcy/s/tnaygcNdY/r2xpaHj5svP+opqmyubSl6HFua3rbsXa/Dpsnip0snWtPJ5/1dj153tb9+EVjT01vfl9Yv+4AaeDly4JBryGFYczwyEjFq8jXWqPY0U7EvxTGZsezJtQmpt6enlSb/PSu+L31FGqqZtpuem0m54P4h+ZZ69npuRPzUvPTHys+BS3ILSx9rvni/pX26/1Fy8UP3459Z/7+5Efmz6Al8rIX4kfT6x1bktvbu/bng27BfihZ1Bz6NiYB64hTx0sQhIhCFHsopUmqVFbU7jRxtMV0TfTzjDRMysxkllTWe2wTHBScclz7uRN4rvA273nDtyRAIcgtpCBsJOIqGi2WLX5boltyThotwyu7V85ZPlwhQ7FMqV75hcp71Z97sersGjKaZloB2pk6t3T79D4b4A0598ka6RvbmbibBpkdMY+zSLI8YZVinWqTbnvKLt0+2SHa0cfJ1llvv6aLwQHng1GHcl1vkVvdutw7PO57Fnod9Xbwkfal9F3w6/NvCKgMLAjKDE4MCT3sEqoVxh22ET4UcTMyJcrtiH60dAz/Uc5jrLGMcTTx2PjlhPfHuxJvJ+UmR504kGJ8Ui/VNI2cfjzj6qknpyfOfMlcOruStXTuR/Zizufchbwv51cv0FxUKQgqLC/quTRVPH955srbktel/WVPrzaVN17rqvh8nbfqwI3Cm69rGG6Z305FotfafclajwcFdQMNmIfyjYcenWgqb25saXp8vfVsW2x7VEfCk8zOoqelzy51nXke0W3zQqIH3TPae6cvo99vwOql/qD+kNWw20jEq+TXJ0dj33iN6Y6zjS9M1L89Oen4TuI9/v2HqbbpopnDH7RmKWcH50rn4z/6fvJY8Pkc+CXka8hiyLfQ75E/on9GLfkuG65Qr9xd1V99vua89nm9b5Nya3TX/mKgHTKBXsGeKCwqEy2G7sXEYKWw87ireB+CFGGN2EVRTBlFsqaSpaaiXqZ5TdtCV0mfzRDL6M1kzazOIsLKyLrJNsc+wNHEWc1Vyl3Ak8ebsyeTL4U/UoAsqC/EI7Qq3C1SLBomtk+cVwKWmJcckXoq3SBzXTZfLkHeVUFFEavYq5Sr7KjCqvJatUjNY6+sOlZ9QqNWM1PLR1tPR1CXRg/o/dCfNRg2fLgvz8jTWMB40iTf1MIMZ9ZmnmRhZMli+dGqyTrbxsdWzY5kN2F/0+GYo7ETo9Nb54r9wcj5v3bg0cGEQ7queNd+cqGbv/teD0qPUc9rXoe9lb03fZp9E/y0/IF/S8DxQN0gdFBH8IkQ7ZDVw1WhTsiZXRluEf4zIj9yb+REVMIRziOPol1jmGJGj1YdS4p1jBOOW45vS8g+7p2olySazHKCIgWk/Dw5lfoirSb9VAb5lPxp3OnRM7cy08/6Zxmeozv3JHt/9kJOTK52ns751Av4i+kF00Wsl2SLVS6rXFEokSoVLuO9ylpOe41YQaikRjxJ/YbrzZPVN2te3tq8I3zX+d65+/0PGOqc6gsbRhoxj0SaDJvdWuIfX2ptanvbvv2Et1P3qfezU123nw93b/WI9O7vO98/8VJ28PTQlxGbV/WjvG9yx6XeUr2Lms6Yi/5s/n15zWrH/r/flnYSVhGAbIRn2p9G8jwAWQ8QnvkQAGYiAJYkAGxVAHyyGsCG1QDyP/H3+QEhxBOPcE4mwA1EgDzCNE2BM8Lwj4A0hFHeAE1gAHwAmxAdJAJpIfwwDDqN8MEOaAqGYF5YB/aATyIsbwBeR/GhzFAxqArUCBqPVkUHokvRrzF0GBOEkbVhIawWNgHbisPgjHFnca/wvPgAfD0BR3AgVBDWiWbEK8QVCnOKCko0pRtlG0mAlEb6QmVL1YgwnSwaQHOYZprWibaXzoDuEb0yfS2DKkMbozXjFFMEM5Y5j0WQpY7VnHWOLZVdhn2Ko5jTjUuMa5X7CU8ur8ceeT4s3xv+uwKZggFCJsJiIiSRRdEhsYfilyTiJF2kVKQZpBdlXshel0uT91EwVpRUYlTaVv6sMqE6oNa1t0O9XaNTs0drVHtOZ1kP6GOROIffhzciGFOaMJjymsmbm1sEWeZYNVrP2JLs5O2dHGIdLzu1O8+6UByQPmh/6JhrGbnHbdWD39PG64R3o8+6n67/hYC1IPfggcMGoY3h8hE1URJHbsfsPdoXGxzPkTCcmJNsemL5ZE6aeHrHKc8zjJlvs15kj+du5/NcVCk0vXTocnTJ5bLRaxKVl29IV0/evnLv4AOK+urGA81irdwdBk9Luil7hfuXB7NGhF/3j116e/79wAfX+bXPdF9vfAc/pZdVVrbX0tfrNgY3H26V/grZVtqNH9DumwMdYAeCQBZoAjPgAgJBHMgCZaAe9IIZsAUxQVKQMeQFJUEl0GPoPYyGhWBTOBS+CLfBX1EcKBPUMVQNahrNhrZGZ6A7MBBGHXMU8xCzidXEJmGf4WhwTriruO94bXw2/gNBjZBNWCAaIDbfpHCkuIcw4VDKQZIK6TIVBdURqllqJ+oeGgOaFloN2mY6Xbouehv6cYSZrjNmMokyPWc+zMLEUstqxfqBLZqdxF7GocUxzZnFZcxNxT3Oc5f3zB5fPh1+Fv5PAo8Ezwp5CeuICIjSieHFMRJ4SSopOmlaGbzMmuyc3Ih8l8JjxcdKXcpvVL6rUe2VVrfS8NUM1wrV9tFx1DXUU9GXN1A2NNx3yCjO+IpJp+miObuFvqU/cqbl2Jy3zbXLsb/s0Oz4zVlhf4LLi4Nch8Jde9343L08cj3ve/V4T/ts+DH5ywXYBkYGXQxuCfkYyhxmEB4ZcS1y9AhNtFlM5tFXsYJxsfFTx72TaJK7UsJTsWknM9CnUs+wZ7ZlJWY75uqeV7ugVqBWpFIscgVd8qQsspz92qNKtyrGG+PVHbd67yzdl3lwrP55I3WTXktoa3n7fKfOszvdMj2FfeMDPwe/Dc++mhqdG/v5FnpHnGKY4Z/dN5+3oPQ1/Uf5SsBaz0byZtvWz19ru/aHka+fFnABCaABrIAXiAV54BboBh8hAiQGmUGhUD7UAn2EmWA9OBwuh0dRtCgjVDKqBbWFVkPHoBvQmxhtTDpmBCuCPY4dx2ngSvB4fDB+kKBCKCLCRD/iEIUexUNKFcrHJEvSB6pEal7qFhoXmmXas3QSdC/ogxhIDBWMOoxjTNHMXMw9LGdY3dh02EU5GDg2OMe56rjP8QTymu6R5mPhx/KvCXwT/Cr0Q3hLlEqMX1xLwlUyQapIuk7mpewPeTYFI8VEpTYVSlUXtVvqOOSu2qS9Rydbj0m/2tDZiNa43/SiebClnbWszaids3234z6nl/u9XFYPJrlC5BC3IQ8lz0Jvgs9xP6J/aaBZMAh5EBoczhXRFhUR7XH0S1xZQvTx4cTNZPgEPoXmpFxqWNpght2p+TOpZyWzXmen5qrlfcuvvHiwkFh0rVjp8qMSzdKWq3rlXRWWlYNVtjf6qg1q6m8L3zl/D38/tnazLq1B8GHfo8RmxZb51sJ2iyfozofPwp6LdU/3XOpzHGB4OTCUOWL8anv0xpjF+NzbiMmt94nTqJnEWXgu6SP6U/zCly8GX6MXi76d/h7xQ+/Hys/rS+ZLb5Z9lpdXIlfmV11We9d016rWSesh6wMbChv5G982jTZLNje2bLdu/kL9cvx1Yxvattu+vmP/MC+53w+wEKUOAJiJ7e0fggDgzgGwlbW9vVGyvb1VipCNMQBaAn7/X7F71tAAUPh2Bz0tvJXwny+kAPwLb398WUMfJs0AAAAJcEhZcwAADsMAAA7DAcdvqGQAAAAYdEVYdFNvZnR3YXJlAHBhaW50Lm5ldCA0LjAuM4zml1AAAEazSURBVHhe7b2He1NX1i4+/8vv/r577/fNZJJJZpJMJiGFhBIgVPfee5V7792W3HvvXW5gMGBjGzDFNphig00zvXdCy3v32pKIQ2Rj2ZIhYb/Ps56jI+kc1f2ed6299lp/ERAQEBAQEBAQEBAQEBAQEBAQeB9RUF6HGGkhAuKy4RYqg11AGix802DqI4WlXxqcgqXwjc5CdFoBsgorUdckh/LQPyVyS6oRnJAD5xAZbPxTYe6TChMJfR9psPRNhX1gGtzD0+Efm4XIlHyk5ZajtLpRO9+JdUg+tgSULdJKsdmnAJslOdjinQl9bxn/QSVRGcgoqPhT/3gCi0N1XTMnAvqzb/ZZ2H9xs18RzNigSUgvWvR/zSmiQO1rzGYBSaVa/X+XVtVzUtT3zmCfq1jta87HaDwaMxLxicpESWX9wt6jgVea2pNr0+hDmrEfPzGjWBDFO4rWtk64RRUgIqNmSX6jiOQ86Euy1P5fFmU+ufxqWlHbsqDPYSpJVX/eWcwxSKqV7ysyhX0fjBDUvYY2TM8nD/5JJZq916Ugh5mmx9RFDJOEypcXeAfgH5OJLb6Kq7ZrWKZOf5vE9EIYSHQ3CGaa8iU1wlKTQ1JmsU5JYaaZ+6W/2+SgMit/7TCuwMKRWVD+u4GqrSvh66htlMPYR/ab19Kp+S9M7i8lOVD8ZDN7n+rOqwvT+L2+LXIgI1mpfBsCSwh5eyds/NnvruaPqQtyyCmqxGZJ7u9eS6fmnf1Ok4OxT7ra8+nSQhNz/zjkQGYo0VDqCCwKAbFZ2Mz8T3W/BZm2ySEpowibfTUL8mnDjLzT3llyMPJZGjfidcsvrf1jkQOZbaBMEISOQVdvImJ13/9M0yY50NQazSSoex1dGwUllW9DI+iaHOwDpWrPo3NbiJulKTmsd06AuXcCrP1SQV+kvlf6oiXjZv8SFFdoyGoC84ZHVC7/jtV996+btsghr6R6UVNxKtskYSrHOwOG3lIYe6fAwIsNLknOGz8P5QYo34pG0CU5JGQsYmqSfV4aZ3ozvgsjr1Toecmw2ZvUYMGc8Qt6jvJtzB+akoODX4LaF2lsboFbqJS/SXXHvcnMfbV3xRL4LVQzEfMxCpIpD1sU9CWZas8/H9NjFxzXUBkKy+aeVq2qa0KsNB9W7EL1eo5ETnH1gj6HLsnBSKJZQJYIgciQEpyaWuaX7EV5EmFJubANSGMXbjYefQv5uayCFkCWmpKDV0TGnC/S2CyHmSRZ7bFzWyla2zsX9IMKzI25YgyvmzbIwYENGHXnfpPRlTE0YWGBREJ8ehFPvtMPWHg+ja7IgQatJjMTpLqCYucea/NFZf0Cs0i1TQ4q6HtrHo2NYD6q8nABLWIpyUGaq7jiqTv3XEYpwfK2jrf+++uKHFzDNAtC+kctnqQXDV2RQ05hhcY+p5XfwoJIAnNDE3JwDFrcb2A0j6Dn62YieQcGghK6IgciP3XHqzNykZSHvV3oihwIJl5Jas8xm+l56zY7711Eak45guJz4BIi4wtpDL3T+Pdg4C3lKefkO3qEp/M56vSCqnl9P/VNcqgsJj4ZG73nTw76zhHIzit6dfzrpnwJtSgorVF7zrmMAtrKw98J6IocKI6i7nh1ZuSV/G58J7okB/pTqzvHbEZXOOWhf2pkFlRw33gh0Xy6qtDqxKTM3+fJJ+dpPjgXYsqX+x1oBkvd82czcj8y88vfqd9cV+SgiXoz8X4PyCFOpuEcN/uzKA/VCiLDE7DhJzN8s2wDt/XrTBESHIv6+mY0NTUv+Q9AMRWDBcjuWY394UJSfp2/puk7tc/Tsilf7ndQRcbna0RyykPfGeiMHDT5bjzfETdLl+RAuQvqzjGXKQ9dEPJzSmFi7IBP/r4c//3fX+Efn/0AT0k0Gtt3o665B8WVciRJS+DpEwtTM3dYWXkgMSENDQ1aWv8+Byz9dLOuYOZimrdJDoHxGua6+JeivKpO59+7ptAZOXhr9tvIcrV7oVwQ/gzk4OEShH99vhr/9+/L4OYZiQb5bmzYYo1NEncEBiXg+r1nuHz7Ma7ceoJLzM5fe4jjZ6+ja/dhxCQVwMDQBV5ewait1c2f1dBn4XP+bzKaNlS+zFslB3Mfzf5HFFNRHvpOQWcxBw1XXlKOgvLQtwddkgPNO6s7x6ymoVsRE5WKf366Emv93ODemQeXhgwYW7iho3sQVXWd0De0R2Z2Ge48fIab957gxt3HuHr7ES7ffIAL1+7jzNV7OH3xHoaOXURGYTM26jkgLDQWcrn2qgtZ0QIndZ9VSxYY/2tewNskB8rAU/fc2cwn+t0MPuuKHEx8NM/9MGHvRXn424EuyYEqQak7x2xGlaSUh74Rm36ywN/+9R3sG9NhV5qEtTb22GjjiGVrNuP//PeXSEzMwa17j3Hv4WM8efqc26Ofn+HBo2e48+AJrt95hOnr9zF18Q5OnLuJo2duYffhKfiGpUNP3w5VVQvLsJsJTdNlN/sWYTNV0mJXDX36XdhtCkDOlTyTnv9rpa23RQ5Nre1qnzeb0eepa1hYMRZdQ1fkoGlw/pUxxSHNeUtFknRJDpY+2p/KlLd24B8ffoe1P9lhjb4NfnC1g4GJK9q792PfwZOorG5DTFw6BgYP4sUvwMuXv+CXX8jAty9evuREcf/RU64kiCAmGUGMTV3HofFrGDh2BZnlW7F6jTkKCxb3o8w3XdbYKwVxsrkL4FCtxLTsEjgEpjECyX51rPJhjsScqt+cV1emfLlXiJVqFojU5CKw1NAVOaQXVKo9fj5GZEpuGJG/8nRLA12RQ4u8nU9NqjvHbGbpN/cX3dLSiX9+vAoffvAtQuOLUNuxH2lZNdhz6DTOXX+EibNXMLB3FNMXr2MuEFE8ff6CEwQpiPPMvRg/fxMjp65h8Ngl7Bq5hMLmQaxaa4n8vMIF/SANzW1q6yXMtE0+BfCNWtiKVFIMQam/r8/Z1LYVZdUNryw0Kh6bNIiU6zlHIi0z7zfnmGnKl/kNnEM0uyoudDn1UkBX5ECgBWPqzqGJ0dolmuVJZRcK5Wl1B12Rg62/Zl8yWUTy3JlhX3y+Hma2YTA0kcDeKQIWtn6QBCRiePwiDh6dgrmVB6xdJDA1d0FKYhYa6uS4d+++khJ+CyKIn5++4C7G5VsPuHtB6mH/8cvYPXweWw+cR17jAFausUBFRaXGP0REypsXoNn4Jen+B2bQZBrNIVBzP9fcV7P/0EKXUy8FdEkOC3YtZjNGNpTuXl2vo2l5XZBDbEq2xgk+lBBDFYqUp/gdln+9CZ9t2IyVEmesDfGAviwETi2Z+N7GEvXNPdjVPwJzZ0+M3D2HfafG0NK1DdGxqYiKSMZzphLU4SVzMR48foZrtx/h3NW7OHH2Jg6OX0Hf6AV07p9Cy8AU4vI7sXadOVpbNQtSUrlwdZ9zpiVnLE2arCbksJC1FcZMCag712zmH/vuZsLqkhwIC62wPZfR2KH07LQc7VbC1pgcPMJml8HtHV28z8Cb5LQ6M/GZPY3W3tYbn9iZYNM2KcwH8uE4VAaf4VpEnmyDU1kqHOwCUF3bCVNbN4zePIuLT27jOV7i4aNHsDJ3w40bt5R08FtQDOLxzzST8Rjnrylci8MTV7HnyDS2DZ1BQ98EqnaegmNgNtxcfTX64u0C3xxvCIlfmjJ5uiYHakWg7lyzWXTau7vATtfkEJ6k23J5xhIZ8krml2b/RmhKDobO4ZBlF6K0qgF5xVW8uQjJJXOfFGyaESjTxIj5sgvVS/f21i7874+X4buGaGzclQmjXdlwHCyB94EqBI82Im6sDc6pMdC3dUF2ax2O37uIi49v4ekvL9DY2I7wsESmHJ4r6eC3INeCgpO37j3B9LX7GL9wE8OnrqH/6EVsZeTQtGcC5duPs/OOYsVGJxQXz9/Pm0/FH0PPpUmT1TU5bPHSbFYqJVvLVzgtQtfkQLAJ0E1CnMpoPNmx/5/y5RYOTclBF2Y9RyVqE1M3LF9rj38bGGBNVQxM+nJhP1jMySF0pBEJxztQfLYPzdMH0X99HEdun8f0o5u4//QxnJ18MTF+WkkFvweRw+PXyOHwqavoP3KRK4dGphzKu48jt2MMkpRmGBk7zPsLl0S9OfGJotBWvronCF2Tg6aVwDQpxFIv74aev6IO5WJsi18h/BLfTO5LQQ4EXWXMzjQquFM+SxB5Xnjr5OAzd0Xcbze4IqxsP2w90/GVpRnMevPgtLeUk0PQcAPij7cj79RO1J/bj57LYzh08wymHlzF3RePkZSUifzcMiUV/B40zfnwyTPcuMPcCoo5nLuJQ+RWjFxgymEKjb0TKGPkkMWUQ2LdIXy/yQ0V5fMLTsbK5j8gKbdBly6GzslBg/OTadKBKatIe9OztgFv/mxLRQ4Ex2AZv0CoO6/WjBFj1kK7zr1VcmDEUFI5e8qyq3MATP2LEVV1GH7JLVhmZsrIIRd2A0Xw2F+BwMP1iGZuRfrEdlSfGUTXxVHsvT6BY3cvMNfiNs5evwRXtwDkZJfg6dNnSkr4Fc+ev8C9hz/j6q2HOHP5Lo6dvYEDJy9jNyOHjn1TqN81jpKtY8hsGWHkcBg2IWXzjj0UV9Sr/8xzGBVjpeCeX0wWarSYJPSukUN5zfzXsmQyd1PdORZiVI5fedpZsZTkQIhJy+cL6NSdW1tGQdDc4gXEId4aObAvhNb/K9+GWnz3ozVcZDuYchiCpVsalnlYw6gvB9Z9+XDeWwa/Q3UIGW1E0vFOFE3uRtP5A9jB1MPQjdM4ducCzj++iVM3LsLUwgVjYyeUlKAAJUORaqBgJCVCnZq+jdHJa9h3/BJ6Dp1H2+AkanpOorDjKDKahhFTNQTvrF1YsdZy3l/yYgqs0hWFOiHRrEdl7eIWhr1rbgXFq5SHvhF/dnJQgdbILOb/8kZ7g0JXi7dBDlRMtqVt7nqRDXVNWLZBAvfsPQgo6MeKDQ74OscfG3vSYUGuhTIoGTBcj6ixVkjHt6F0sg/yCwe5e7GPKYjRO+dw6PJpWNt4Ynr6EicFijM8f/ESjxgx3L6vyHEg1UDTmIfGFTMV3QfOorn/FCq3H0du2yjSGg4hunwfAor24tvNErS0tM7ri6akLnWfX1MjojCUyBAjXVgbQV2TA6V5qzvXbKZJ/4T3hRwIlbVN/D1qqsTmaxaaFnFeSnKg9Oj5TmMlJMiw2j4Vzpl74Jfbh+Xr7bCsNBhrd0ihvzMLNnsK4LavHIFMPYSPNiP2eDuyJ3agbGoPGs8PYeulUey5OY64knxEhifhJWOFZ88pdZrWVzzF7XtPcIURw9krd/kU5ugpphooO3L4PHcp6nZPoHTrMYVLUXMAoaV74ZM/wN9TRsb8iqAWV9QtaFp3LqMuYZp2k9Y1OVB5dHXnms1owCsPfSPeJ3JQgTc1DmXf6SJbPqizVE1minRNDuTvUF/MDA0r/jg7BWCTTxnspbsgyRvAFusofO5rgx+6k7Flh0I9qKY0KfYQcaSZByfTJ7pRPNmLmnP7UHmiD1vM7DE8chKPfqZsyJ85KVy78wiXbiiJ4QIjBuZO7D9xCb0j5/kUZgtTDVU9J5DfcQTSxsOIqdiPwMIBeDIVs9m3FIFBEfP+LLqKSlv5zz/tWtfkoOl/SJNu62V1crXnWIj9UchhJqgbuaGGeSRzmUb1OjX9YTd4ZWMzzWuTlHxlGcw/lvGceVrX7xAkQ1hS3qKmUfSNXGAa3gi7tB64ZvbBMaoen23Wx7ftCVjbnQqTXYrYg2LmohJ+h+sQOtqEmGNtSDrRiZyzuxHYlA8PjzBGBkwl3HyIS8wuXr/PsyFpsRXNToyevoahE5fRNzqNHQfPQT5wGnU7T6KkawyZrSNIqj2IsLK9kDD14siIyjSyGS5ufvP+XI2tnbyzuLrvcrFmIJlfpqGuyUGT4qlkIRr2bMwta+SEos4Co1Kx0SlG7eu8bn9EclCBOpaZsrG1+NmNUpD7ojzt3NCUHKw8o5bky1i/xQkWsR2wTemBo2wn3GU7sGylCT7NkmD5tmRs3C6F8e4cWFJwcrAUXvsrIDlUg5CxZkSMt8O7PR+r9MyRW1DPi7sQGZyevo1T07dwkpZoT13nCU8UgCRi2H7gLA9C0gwFz21oG0Vq4yGuGgIK++GR2cuJyiymDdZ2nhp9B40tbTprO2/q++YCrbomB01rVlCQVXmoVmDpM78+KX9kclCBpiWp45W69zJf84uZZ28QTclBkyXbi8GaTQ6wTOiCbWoP7Ji5sMFp4VeAz3/chK9qwrG8K4kTBMUfKPfBcbAYrgOlsCiMxcYgT/zr2x8REJiMI1M3cPQMM0YGR5j7QCsvKUV6P1MLA0cvYhdzJSgA2U7EsHsCFYwY8tuPQNZ0GAnVBxBSMghJTh8cpOx9cHJoh5mV24K+Ayrppu47XaxJoufOkdA1Ocwn4Wum2fhrt4gJDXp1r/O6/RnIQQWXEGrfr3l/EDKqaq48zdx4V8mBlINlXAfspTthk7KDE4Rnbj8M7OLxqZk+vmyLxeqtydi0XcYVhNVAAdaEeULPwB2J6bUIjsjGt19vQURsLoZOXmUK4TIPOO4du8TTo3tHLnA3gi+w6j+Nht4JVO44gcLOMUYMwzwIGV62D755e+CSvgv2jBjIzBk5WNp4LPg7SMtlV3sqqabNQKXP3FW7dU0O1MhG3blmM7ryKQ/VCt5HciD4Ri20gMw8E+7eVXLQM3CCYWgDu1rv5IPSlgiCbT0yd+HHTe743NMS33TEY3V3Cn7axn7Q3iwsc7VGTGo1dh29hh0jF5Fb2Y3olDLsHr2E3iOXsJMRArkP7f0TTCmchnxwCs39k6jdfQpFnaOQVg9AxlyJ5PpDiGTuhF9+P9wzd/PXJYIiojKJaIaTs8+ivwOKx1D+u7ZW6QUnzk4QuiaHto4ujXxhbbcgeF/JgWCjYTsAsnl//+8qObi4BkDPr5yTA7kWKoJwkO2Ca+pW/PCTI/5lqIfPM324i7FmexqWp/li7QZ7ZFbsgnzfecRk1MOfKYjMim1w90+GiYUP9M09sdbAHhuMXaBv5gVT60CY24djLVMqX67cAhPHWATl7oR3ejdcZdt/o1zotfV8S5m7Eq7V7yA5q4R3LadEFXXf+XyM1IjydL+DrsmBoGkNyYqaReT8v4b3mRzqGltA5QXVvbdZjRG58vC58a6SQ3xcGlbZpTBfn1252cC0TVUMUDJHJvPd0nfAwiMLn65Yjy9LgxQqYnsqvkr0wFfrDCEJz4W0vAcFLUNw8IjHB58vx/Jkb3xfEoqVtdFYVhGKr3MD8HmSG/4V7YRPpR74JFeCTww2498rtrDzsu1yIxixz2wv282JibZr7FORlaW7cl0pjCjMJCma+5NzXA2Wghw0LaBK9UWVhy4a7zM5EDQdw/Mu5PyukkNJSTnPkHSQKmYJOEGkKLZ0JXeQ7eR5B1tsY/GflQb43NQAnwXb4d/ZPvgiygkfffI9vlq2BV9+tRnffGOIT79Zj+8aYvhMxzcdCfiyIw7L2uLwWUsUPm8Ix8dVQfikxA//zJfgo1Rn/C3RDn9z3IL/fGcKs3Byb5h6YeTw1QbvJfn8KZlUbFazq7Hy0N9hKcjBJ1qz90oFdJWHLhrvOzmYemtWq5XS3ZWHzo13lRxaW1vx9SoLWMZ38YHJYw6MGMi9UCkIMsqBcGNuhrV/MTZbRWK1njt+1HODjV8GYkp2IyxnK0Kzu7CKuRv/ypbgC3kMvmiMwL/rI/B5TQj+WRGIT0v88UWRH1MO3vgowxV/T3HERwn2+CTGFh+uW4kVW3zhkN7L3ksnftxgtWR/hqKyamzSoBlKbaP6tG6qO6ju+epsoY10G5rlGq0NIGWkrVZ47zs56GuYoUr1N5SHzo13lRwIbq7+2OCeC/t0kvVK9UBGEp8ThoIsyM0gFeGTPwj/wkEEFe9DRPkQIsv2IbryAGIqhvD9Wht8Ecvch7pQBSGUBeLzkgD8q8AX/8zzwufZXviH1AUfJTnif0dZ4u/hlvhrkAk+WrkKW9yy4ZTRz95LHpKStHfFmw+8wucv18tq1Ce3aNLE1XYeA2g2GEs0cy0o80956KLwvpMDreZV995mM6qKrjx0brzL5FBcWIJ//+jEA4Ezg5IzSYJiEXS/YjahBy4Zu+CWsRteOX08P8Entw9+BQMw9szEZ19vwD8jmSJg7sPn+YwUcrzwcaYHPpG64sNkR/w93g7/E2mJjxgxfBBsiv+xWIevVljDJnk77KS7sGzd/Iu9aAsV1fNf+t0s71D7/jTJYKTBoTxMY1Cqr7pzzmWhCYuvJ/k+JUG9jpQsDYORzBzn6zq+y+RAMDCw5+sZaI2FatZARQ605aSgdDUUZKF4jO5zlu3k2ZWUp+CSuQcGkkJ8+s1GfCQxxQcZbtx9+EeiAz5OcMBHsbav1MIHfkb4L4kePly7AuttEuCY2Y8tPiXw9Q1Z8j9CdV2D2t/hdSNJrzzkd6Bqz+qOUWd6notTRlRcRN15ZzOayqV+HMrDNUZ7Ryc2u/8xlENNS/eivlt1MPBMUfu+5rJ5L75618mhsLAYX6y0+zUoOWPW4nUloXoOmXUyIwrmdqhIhLsljGCMAyrx7++M8KHJenwUYYW/RllxUvgo1AIfBBjjfyQG+G9vRgx2G/HPL9fCNKQGttKd+PpHmyX93CpQpWZ1v8PvbI5GMb4aBAuJZEitKA/VGJ4RmifmUMA0OkXzGaC29g4Yec9/MM8nM1OX5KDH5D9NO1KGIjUCUt69IDS1yGG4kI7t7LtWnuLNeNfJgeDi7ItV1glMPSimNVUKgoiC355BCjx4ye4n0pipNMiITOyZi2IR1YofNvrgwzU/4q+MEEgpfMBI4f9z34i/em7BB74G+HDdCqyziINT5gBWWMYhK3PpuzR1sKviFo/5XRnmamefmluu9pjZzMx7cf00qHahuvPOZRSgpFyN9LzZZ11UoCrnvtHpPOqu7lyzmVPomzMDdUUOVNnr9WMpGcnKLxURybm8xkXrHK0ZVCgoq+EV4Pnix9fONx+zDtAgzvNHIIfmpmasWG0KPf8ynvegUAwzCGGmzSAKlWpw5M9XkAUniPTdsIpt4y7GB25b8FemFIgU/st9E1MO+vib3QZ88p/VMA+tg15ABaxtNF9LkZJbxZNNKEi3kCItBaXV0Pee/5WBEqmUh6qFpglWtMI2M+/38pOyIevkc8tjGuCLSg/3SocZG6Q08HyjMhgRZPL6BjZ+KbyPKM3Tqz1uDqMZm4raN5fe0xU50H9A3fGvm6pfKo1LE+8UGLItL/3PyGCTZHHl5OjcNZo0wPkjkAOBuk598a0RjMPqeb6BQiEoSUI5+F8nBa4glAFL1XM4QTA3wTyyGf/86if8H5cN+C/PTfj/PTYzkmDEoLeauRM/Qc8jF8bhjVi1znxBn9ch6LXvlboTBaUiMaNozg5FtAyZKlJrkpugN48SYJLIhV1pyM1QLdHnV2oa9EweK087K+yDdFPHYiFGnyEhfX5yWlfk4ByyuJWU2jCXUA1Xw/5RyIFQWFCEz742ghG7oqsyJym2oHIlVOTwiiDY/Sq18OoxdpvIYaVhED5Yuwr/y2Mj/uayCR84bMAHK7/HstV2MItoZMTQwFvhKV9aYxi9YVktzwnwzoK+ZyqokhI1x9U4DZYZrWmIk83vj08NbNWdYyGWlPnmgi1mvm9/QJD5xcz/P6srcjDWsOaFts1QsoBx+0ciB0JRYTG+Wm6EDZ75PDHpV5WgUAa0/Q0ZKO9/tZ+2Ez9Zx+HD5Svxgdk6fPzNanz6nR7+/Z0hVhuF8Ods9C7G2vULJwaCLtqeqTO6Qitf8o3wj11Y0yF1Rp3NlKedE5r20dS2uYZp9n/VFTnM7Iy+1EYxIOXb0Ax/NHIgFBUWQU/PFistImGbuJWrCE4OzEgpcMLgBKG8rTR63gbHFPz938vx1/Xf4+Mvf4QhIxnrxG2cUKzY9huDYHh6BizqM6oLPunCLDUoFaeCsa+Wis4wN0N5yjeCgmBqz6FDIxeI8i6Ub2He0AU5UA/YxVdwWpgZ+WRA3rF1Yf/nPyI51NfXY+eOPnz2j1X4+At9bHDNgE3yNq4kSBnMdDMUpEFxhl0w9C/DR3//Dh9//iOWb3Bn++U889GKEcxqh1Ss+skSNTXzr4w8G1JytVcUVZ1RZJ+mDJUvpzGM2R9G3Xk1tdaObfN+D9RBneIu6s6jTaNBaO2fBgqcKl9aI+iCHCobO9Ueq0ujLl8UyFW+hYXhj0gOBH+fOHj6JsLcUoKP/rYcn3xpgFWW0TAMroZtcjefsnSU9cIxo5cHMB0y9sAyml3RPXJgFSPnroZ+UDW+MwrD2o02Wl1pWdOyDcZ+2peRFHG38ktDUcXC8xBUcA1NxxaKe6h5nTcZxUasAhfWoYtKxPH2dGrOuxgjwjRkpLfYTtO6ciuKq5rgEiKDgTf7/AuYbZm3+eSCOmk1trQv/v9sHaKZbxyVPv+y4rpCWUkjrK38kVXaDGlBHXyDUmBq5oWf1lniy682caL4z4/O+M44DCutEvgy61W2iVhlFYMVpqFYtdkFRmauiIiIQ3u7+pRjbaC0qh48Sq3h6srXjaY0A2K13y6P3B/nkHTeMkDd66qM/sw0J2/qI0WohsVhZ0NgXA5vG6/JorDXjdYUUOCXOoTVzbLoTFM4RWj2fgKSNCej1rYO5vLkw8KXEdEianhwI3eF/b+oynm8hi0L/nTw846FpXUAkrKqkFHSBFlRA2SFdUiQlSMkKguGhm7w9gjk7kF7uxbYU0vIK61FYHwOv3pQYRcTdoWi+Wtals0HCNsasD86ze9TurNXZAYiUwpQVj3PSsGLRGtbF3JLqpGQUYxoaRFSc8pALf2oh4LyKToDvZZbWAb7g6eCovp8laHye6EZFlo4ZqisbE6BUA+mXmNlf56B0Naxlf3ODUjPL+dd6/3ZhYDyOuizWvimgWplUFYlfT90H/2HKLicsdAemH9GWJhK4MNUQmpBLTKKGxEQJoOFlS+srT0RHhaHyoq52+sJCAj8ydDa1AVDAw/4sytGenET0vJqOClERSYIMhAQeF8hb9kGI0YMsanFjBgaEZ6QDzNTN8jlbYIYBATeZxgZeiIqqQjpJU2IZMRgZ+MlSEFA4H2HtYUvwuJyeeAxOrkQ1paadZoSEBD4k6GjowORYVK4ecdBWtiA5JwqmJq4C2IQEBD4y19MTSRIzatBOiMHF/dolJS8eZ2/gIDAnxweLhHcncgua0GstBRO9ovvMCUgIPAHh7ylCxaW/sguaWaqoR6SwBRUVYr8BQGB9x6JTDH4Bqfy1OiCqjbY2y9uhaSAgMCfBA62QTw1Ore8hROEvZ1EkIOAgMBf/mJh4ctToynekFfRCgcHEW8QEHjv0VjXDgfnCORXyjkxZDPlYGMjlIOAwHuP8OAUXqMhV0kMFHNwco0Q5CAg8L7DixFBQEjaK9VQUtuJyLg8xMUkv1WCqK6uRnl5OWjb1ibWdAgILDmCfOMgCUjmgcji6g6U1nXxraXF0rS9fx2VlZXw9vZGmlSGtDQp1q5Zg/Xr1yMgIAD5+fmCJAQElgrlpfWKbEimGMjKG7aivm0nImKyER+bsmSDsb29DUkpyQgKDsa+oYM4cGgY7m7ucPPwQoO8E9t29CI+IRkSiQ9KShbe51FAQEAD2NsHo7imE5WN21An70FzZy/q5TthZxuI+roGnQzE1tY2ZGcVo6ysHFVV1QgOjGAqQQ/StHyUltTAxsYBdg4u2D14CIeOTuDw0XEcPTmFPYP7ER4ZhdDQUDQ06Oa9CQgIMLS3dcDW2h95FS2obtmO2tYetGztQ3fvEMqq5LC38dX6AGxra0d4SCrMjDyhv9kZLk5hCApIQmhIGgL8EuHlEc3ekx8MtjjDyTEItQ0dGDk2gTFGDidPn8eZ85dApcc9vbxQWLi45qgCAgJzgGpEpmRWoIK5FFXN3WjdugddO/diZ/9BpKYVw0+ivdmLuro6lBTXwIcRQES4DPFxOThy7BROTp7HsYkzXB2MnjiNw6MnsWPnPqRJS2Bi5IGgwAQMHRrD2enLmDp3CVdv3Mb4qUlEMhWRlLS4JrQCAgKzIC+7DBL/JFS1dHNyaOrYBfm2PdjeN4Q9+0cRFZWJ8NDFlYcrKixDfk4ZaqvlsLH0w7HjpzF9+ToG9w/jHBvwk+cu4tSZCxhnyuA4IwlSCdzGp9C/bwSREekwN/ZEz85BXLh0DecvXcXN2/dwi1lGRiYSE0X5OgEBraO5uQVWbMCW1XWhomkbGtp3omP7ALbt2ofegcPo2zeM4OAURIYlznsANja2oIWdt6KiAmXFjdi7ZwLTF66jsrwRrsyNuMiI4frN27hx6w6uXLuJy1dv8PvOX7zK3YbTZ6Y5UZw4dYbZWW5lzPUx1ndD9449nBjo+Dv3HuDho0dcPRQVvedlwgUEdAGKAUTG5qJW3oOGtp1MOfRzcujZc4CphxH07T2M0OA0BAfGvXEAJsXnwtEmAE62gYxQUlBZ2IfRgadoqu2DhYknsjLK2eC+y+32nfvcaLDfuHWXD/ir12/h0hUiiivchVApCiKM+oYumBi4YYC9nzv37uPRoye4/+AhurZ2w8nJDZkZOcjNKURKcgYy0rXT70FA4L1Ga0u7Qj3UdqKSqYealu1o364giB3Mvdg9eBi9e4cRG5cLN8dgVFerb2FXV9MAb7dIVJU3Iy46C+tWWmHzGmeYbPaFwUZnpMtKMD1NLoGCHO7cvY977Op//+EjbvfuM2P7t+4olMEVpijIhTh7QRFrOMO2JSVNcHMOxdFj4ygrrYWtlRcM9Zzh6R6F+IQ8JCQXMitAcLiMBzZrahbfrUpA4L1GBHMdaOk25TtUt3TzfIeOHQPo3r0fuwYO8fjD4IGjKK1shaN9MKLCk1FX++vAowSm7MxSGOu5MQIJwYYfbRERJkNDQye2dvfhyNg4rjBVcJm5Eddu3OJK4TYjh7v3H+DBo8d49PgJHj/5GT8/fcrsGZ78/BR3GVGo1ATFKMhOMRVhx5TJ2lUW8HALR019B49LNDN3KD27EslpxWjp2I2tu4dQwlwRM2Mv5t5UC4IQEFgoGhua+ECS5tTwnIfqJgVBdPYMYhsjCFX8YfDgGLt9COlZFXB3jYSHcxj8fSIREpgAKlBbUFiHsopm7gKcYq4AxRHIReCBRHb7InMZrlxlBHFdEXMggrh/7yGPHTx+8hQPHjxCLymWHf14+uw5cxsecbfjyrVb2M7UjI93HJ/67NrWh5Onz6GpdQcCA5PgwAgrNiYX8XF5TDEEID6pAD39h5CWXQVLUwkjqUZBEAICC0VZSTWMjbyQUVjPU6nL2AAnguDTm2zA0vQmxR+IJAaYitjLjKY7Lc0lPGhZXdeBE2zAnjx1DsdPneXbcbZ/+swFTJ6dxhnmGhBRkAKguMKV6zf5jMPd+w+5kVq4fuM2YiIzkJyQy92O+w8f8/jCBXYcuSXt7T38fC2MFLw9Y5g7EY2Kqg4cGJ7AxNRljE9ewrae/Yy4IuDHSKNOvhNBEelsPxxyuVwQhIDAQpEhy4OJiTdSc2tQVNPBZzEoDtHS1cvdjO29+9Gz5yD6949g76ExLumLSpvQO3gYo8dP4fCRcQwfHef5CjQdSVOTJxlRnJq6wIOLNG159sIlXJi+ymMKE+On0drajTb5dnRv78M9phQaGMkcOHCEuRX3ubK4+SpYeRuXmepITy/F5vWOiI3Owdj4BW6jx85ghBltx09fwpFjU0xF5MLVJRwN8h54SOIQFvJ2F5QJCPzhkZNdBH09N4QxiZ5R3MQJgoKUlAPRvLUX23btx05GEL2DTEEcPIKhkePYf3gM+xhZHBo9wY1Snimz8ejx0zh6YpJPR44zJTExeZ5d4RWZjifHJxGaUoOoznPYOXIeddUtOH5yEteYeiBTxRvIpbh8TTHdeW76CsbY+Wpq2hEXm8dci4ts/xyOnTzPyIhtx89zgjg2cYG95gXkMJKzsfZHdmEDPLxjEReXLghCQGAxqKyohp21H2zsQ3mvTFIRFIuoadnB12AQUahcjV0Dh9E/NMrcjF8J4gAjjIMjJxQq4tgpThDHxqc4SZC7QUpiYOAATGPl0Ms/CmklIx7mKkyevcBdjumL117FKcgoWYoIZZK5JufYY03N3QgNlnJyIEIgYhhmpHCUben2UUYYZOPs8crqDh7ETM+thoNTKLIyCgRBCAgsFonxMpgaecHLLwmJmZWcJCjVmkiCciJat/YxktjL3I0hThIDnCSOYu/Bo1xNDB0+xoni0JGTXEkQURBJkJELEp9ZD39pM/KruzFy9CQngKmzF7lRnIKMchxOMbVB+Q5ELLRfVdWGqIgsnJiY5iQwxgiC3Iojx89yU+3TYycnL6GppYcTRFxiPlcSVVWiwraAwKLR0tLKBmISJwl7p3AkZZTz0nKldVtRya7gpCQa2yl56tfA5a7+Q5woBg4cwSAzriRGT3IjkhgZI5djkrsdRArHmItBsYnjRBwnmcKYOMNuM/eA3SYiofgFqQ8iF4pjJCXnIy+3DuNTl9njF3CcuRDkRpByICXBbYIRyuRF/hgFKnt2DcHJIQR+vol8S9mhyo8oICCwWGTIcuFkHwBLCz+4esUiPq0EeeUtfGajhl2dmzp285WdlECVyWR8aWULT6CiXAmaDiXCILIgl4NcECKNoeFjjDROcOKgRVekKA7NMBWpHGDHcBs+zqdRu3v24dSZy9x1III4yYhgYuoSIwxmp6YZWZBd4PedZs87c+E69gyMwM01AuYm3owkYgU5CAhoG9SSX5qaCTfnYJgZe8PRMYyXnEvLqkQBIwtaAh6XlA8n5uPTVGjnjkF09ezlKz537DnAyYLcEApqEmn071eoDJoiHRg6othnREKxDErhpv1+dv/eg2Ooa9oGd+cIRgA0A3JJMfjPXsYpZqQQaP8UUxRTZ69w8qD9SbadZI9Psvv2DY3B2zMWa1dZIS1VpFkLCOgEVHRFyiT+t/8xxOrl5ljxrSnWrLSG/hZXGBt6YuW3ZggITkFRlRx1rQr3g8iC1m907hjgSVbkimwl0ug7wGdCaE0H1ZTo3j3EV4fS1CmlcauCnxJJHCrK5Tg7fR2T564oiIEN/im2nTp/lRMBEQNt6TlnL1zDGXY/qQd6/Dy7b+ToaXh5xvD3W12lPh1cQEBgkWhjKsJwkwvWfm+JFd+YYu0KSxgbecLVIwahUVmwtQ+GkaEHwmOymaLYgfJGqh2xnasLSlKiIjON7bvQ3Mlckq49aOrq5QSiUhxEIJRjsY2RRV5hPdycwpkyuIgLl27wgX9uWmGK29dx4SJNeV7HmXM0y6HYP8NI5AK7Tfv0vPPs2OPj53giFa32JCWk/DgCAgLahIWxF7ZsdIE/cy0iEwuRXlCPjKJGZJW2IKesBcnZ1bzCNQUyS5TJVSU1ndxo9oOIQkUYRBaUmUnLxymvgkiDlEY1cycsTX2wo2cfrt64i4tXbnKCmL58c8btG5wE+O0Zj9GWSIK2l67eYvdR/sQdTExOw90tEsEBb15xKiAgsABUVtSC2vjHZ1bwNv4puTW8pT9v61/UgMySJmQVN3GCICuqbudEwWc9artQWN3G8yjK6okoFOqCtkQWRBSkMBzsQ1DISOfazXu4fPU2H+RXr93GZWaXaLCz+4gIaEuP02P0nCv0HOV9RAr0fHrO1et3cIXZ5JlLvM6EXN4uCEJAQBdIl+XD3NIPMjaApQV1nCBSGDkk51RDVlgHWX4dMhhxZDJFQYSRzQgjh5QFM2qsQwqjtLaTEwdtyUhVkMpwcYlAQmwuH9g0qMmuMfVw5bpy/4ZioNN9ikFPGZaUdn2XkQndx5534zZuMGK5zk1xP+3fvf8YRex9FRaIytYCAjpDfLQMFlYBXDEQQSRlVyEtv/bVPhFCEiMLIoe0/BpOFKQo+JZUBXucmuzklLdwkiAXxMkpHNFh6Uwd3MTtuw9x684D3Lx9nw9sspu3qGCMYp9u0/bWnfu4RffPeIw/zm7fvKW4rdp/8OhndHX0QibLEeQgIKBLxEamwczCl5MBuRhEDsk5CnIg5UAEkF5YrySIWkYMDVxt0HOzipmqYNuc8lamNGphbRPIFcMV5h7ce0ArNB/iNiMHslt3H/D9mXab3Xf33qPf7JPdY/fdfXWfYkEXlZm7e/8Rnjx9hhpGRDnZopq1gIDOkZaSA0NDT0QlFULKBjuPQ1D8gZEAqQhyOcjVINVAREHkQPcTWVAgMyqxAJvWOyEjvZQN7Ifs6v6ED2QiCG5ssN9j7gARgWL78NV9queQu6Awup+qTSlvs8fuM3vIFANtm5u2wdU5RBCDgMBSobSkAtYWPnB0i0RSViVkbNCnMUJQuRkUiyDSIDKggCURBD3P2TUKa2ha9HtzlJY04umzl2wgP8EjNphp+/ARDewneMAGO5EGGd9Xbul5M+3xq+PoMbZ9/DMvJHP9xi0kJ+aJmQoBgbeFxAQZrzJl5xjGFEEh4tPLOTnQcvAERgZUOyIsLhcOTmFYs9IKG9fZw8s/Gd4haXCwC+IFYRSl457h8c9PecWon9mWjArE0P6TJ4rHFfex56n2nyr2Z9qLl79gfHwKXoy0EuOlogiMgMDbRmpKOpwdgrF2lQ3PnjQx9sbmDU5Yt9qGZ1fqb3KBq1cMopKLEZVWijBGJHpbXDE1dR4Euto/YzZz+/TZMzx7qrqteuwF2754bfscz1+85OcZ2HMQehudsfYHcwT6haOpqUmQg4DA20RLSwsiQ1Ogv8UFpibefE2GLVMG7pI4BEZlIi69AgmZVYhlyiIhsxLRjCA2/uSAvOwKXLt2kw/sFy9f4uUbjJ7z6/N+4UagbVvrdk4M1E1L3tmLgIBEWBq6oapSFKEVEHirsDH1RkBUFiOACj6DESMrRzwjgsSsKk4IsWw/RlrGiKIcUakl8A2TwcTUh/fWHB4+xgf5QnD/3n1I04r4aswmeQ+Gho/z4jRUMLe0rAmGGxyQnSna/AsIvBW0t7XDWM+VEUAZwsl1SC1VkAHbJ9VApEBqISm7mt8m14IIhAKVPoEpcLANxIMHD5XDff44cfwUXBxD4OsTjz17hzF8dIIvGVctBx8em0BX9x6YG3kgLSlTEISAwFKjob6RuxREAJFMFYQlFSMoPg/xGcyFkJZykiDiiM+o4DkRRAo0i0HTn6QuLCx80dTQqRzybwa5Fa3N2/jCqgJ2Pqo9qSoaM/M22fGJs+jfNwxbSx8kJ8gEQQgILCVqquv46sxopgpU7gORAbkTZNL8Wp7/QGSQU0LZks08aYrSqrNKmxGbUgQLEy9cv3pDOfxnx/mzFxEZJoWNlR927NyLqbOXeJm58cnzvH4llbenati8KjYzKnxL+0PMzbBkr5GTJVwMAYElQ0lxGUzNJDzeQMQQwVwLii2QckjLr1NkVDJiUGVKUhwig+0XVrUht7SFL8qi6U5ZaqGSAn6PGzduobKimXflzsgo46pA1bqftlSolsriqwrX8tvTVzCz5d4gUxBGm5xRU1MnCEJAYClAV2MTRg7hKcVcMZBRXIFmJ4gUyI0gtUCuBCkG7lYUNfL1FaQe6P7Khi6YMvWRm12B/j1DGBk+hr0Dh1BT2cKVAnXdCvBLQP/gYVDzHBUJTF+6zsvbU7ctKnfPF2LR4qwbii0vf88UyfSla+x5t3gfDRszT0EOAgJLAVlaFl+1ScFHIgRSD2l5tYqUaUYGFIhMZfu08IrqPBAx0JLt3PIWVDRtQ1VzNyqbt6OmsQsBgcnwcI/iboOXRzTiYnNQ19CJvUOjTB0o2u/xVv988N/ifTCorR416aUOWjON0rOp2zf176QWffR8ap4THSFDQlyqIAgBAV0jNSkDVjaBiGHEQERAcQdyK14tyCpt5kRAt3PZ7Qb5Tr7f2Lmbt+ejxjp0e/feYV4VimpOjiirUY9Pncepc9OcGEgxkAqgpji8Y9aMlnuUcv34kaJpL5mqgS+lVT94SAu2GGGwY24xowY7lkyltLa0CoIQENAlUhLTYe8UxmcepPl1iMuoYO6EYlEWJ4jiRpTXd3HFQCqBemNQG756ZSk5KgBDNSbbt/fztnxUpJZ31DpODXMmeUBx6vwlHj+ghr2kAogQ7jGjwf+Y1lQ8fYrnz18oE6Re8tvPnz9n9ytSrx9Rx2/2XN7glxFJUX4NIkMTBDkICOgSNEVIi7Ao+EhTmZTDQGssyI0gtUCBR1rOTRWhiCCIHKhClKIV327eOKdj+wAvMrufN8s5wXtdnDytaLFH3bQo4EjKgVwKWpNBSoDUAbX5JwKgzMlfflFkTBLo9vMXRBAv+OPPGFGQkqDFXaQyzp69CBsTL0EOAgK6RHJCOtx94rlSoBWZNG1ZUtvJSYEKu6iKvhAhkIoorevk5eGotmRbdz9PWCJioKrUlMBEPS+OMOXApySZkYIgciBioODj7Tv3eAt/au/PFcMLphZmEIMKRBAqFfGM2ZMnTzkx3L/HFAcjikxpMSheovwYAgIC2kZSvBTeAcl8NSbVcKBAJBED1ZGsbNjKbxcykqCZC+pxQWXiitm+opHvDk4QVKr+4Og4jzeo2upRFyyahqSkpnPMpaB4A3XoJrfi/sNHXAnQoFetsVAHIocXjDy4e8FMsSycEQQjiVGmUFzs/AQ5CAjoCvHRKfAJSuEzEhSQpApQlM+QXyHnwUhSEaQeSC1QnKGgSs6NenJWN3dj34Ex9PQf5E1vqIs3kcKRE5OcGCgoSdvL16jA7A0+80AuBSkAGvCqFZmzQaUeXjAXgy/zVqoHcklusnN5OoeiRbTPExDQDaIjEuHln4Q0pgx4FmRZC89ryK9s5XEHVc1IIgYKSNa29KCxYxd3M6hvBd1PjW2omS7FF6iFHq2LoH1qwEsuBU1DkmKgGQqq/vSQKQdSAnOpBg4lOdBScF4TgpEDzWrw2Q12OzujFBmixqSAgG4QGRaPNWs3IyqlkBMDzVCoiKGycSuKGTHQbEUBcy9o6pL6VhAp0CwF3U/xBuqzSaqBYg5Hjis6dlPqM7kSlOx06aoiGHn3HtWNfMBnKCjIODMIqQ70OAUrVTUhFBWjnnD1QeTQ0zMAf+9wQQ4CArpAdEQSfvxRHxY2DkjMquQ5DJQiTVtKjSbCKKfYA1MQNGNBhFDO7qc4A8Ub9uwb4VOYisa7J5lbMcGb8RI50NTl+YtXeAbkJUYUNFNBMQNSATQb8SZymBmQJLeC1AYFM+8xo7jDOHNbXOwCBTkICOgCUWGJ8PRNhIWtE5zc/SDNr+cLqnjvCkYMiiY3rbwdHqkGcikoz6G2dQd3Oah79zBTDaQWhscU6oFiDeRWEDFMX7zGU6EpG5ICkhSMpJgBDfq5uEEVb3jlUjBTBSRVeRLXmLvi5hCMjo5OQRACAtpGVHgiAsNkSC+shYGROfxC45Fd1soDkZRGTQ1siBwoZZqMiIHiDap2eJTnQM13qRM3temneAMlPNGCKprG5G4FUxA3b1Ma9F1+5aeBriAH9eygcic4MTC1MDPHgUrX05YCkpRiHeQbh5pq0XRXQEDriI1KgSQwBTnlcsQmZ8HU0pbnNVD/ClINFGsggqhs2sYb69a27OCxCHI5qAM3xRwoK5K6cNNqS1IOJ0+fw+iJ05wYFEHJKzxtmtZQ0CAn5UAD/3VyoL2XSsVA5EGuBMUY6BhVbgQpBnJPiGioSU5acr7oiiUgoAvERafCXRIPaSH1pciCubU9JwcKSJJiqGrcxqc0KSOSFlpR3IFmLZo7e/ksBnXc7h0c5klQ+w6PoX9o9FXMgTIkJ89e5CRx+SplR7KrPRvcpBxoKpNIQAWaueBqgWIMFIBkj1OSlMqNoLUVFMwkxUAuyrVr5KY8RElxPVKTMwQ5CAhoG4nxMvgGpSA+swohMVJY2jpyl4KmNfnKS6YaKPGJkp6IMIqrO7iaoNRpynWgmENXzyB29h/iC6/27B/huQ6T5y7ygi1UyIVmKoggaFCTW0CzDqQKCJNTU7h16xYnCpqRIOLgU5bMlVARyS1qlcdIgdQHJ4frt/n5rt+8g6qKFoQHxwpyEBDQNih92sUrFsm5tQhmKsLU3BbZZS08U5JmLYgQiBxouTYRBKmJLKYkqI5D69Y9jBx6Id+2hyuIvn3D2M9UA01nkntBJHFi4iwPTtJybUqGUi28IoLYvWs36urqGQk8ULgQTCXQNCc9pnAjFDGG67duc3KgWQ+aDiW3gmo8UCyjva0HoQExghwEBLQNWnjl6ZuAtIIGuPtFw8zaQUEM2VU8M5JmLJKzq/lUZlVTt0I9MHdCVQWqrKGLByq37tyLnj0H0bt3GH3MBg8exf7hYzx9evLsJVy4eJ0Xb6ECL2fOnkdBYRHiExLRPzCAc+cucIVAhEDEQHkMRCBEAhSnIELgroSy/gPNgNB5qN7DDqZagnyjBDkICGgbRA72zhFcOXj4R8PCxokv3+b9MplrQSszac0FKQciCiIJikFQsJKv1mzaxt2LemY0c6EKUA4cGOPqoXfgAOQdjFQKihAcEgYnZxcYGRtj7dq1sLCwgJWVNbq39/C8BR5XYARB22vKug+cEJjaIJVARWIouKmqD3GBkcSuXfvg7RYqyEFAQNtITpDC1jEMcRlV8A6KY8rBkec6UH8KKi5LBKEqEVdWt5XHICi9moiBCtBS1mR5rRwhUUlo2z7IiGEY23YNoaSiDvZOLli9Zg2++eYbWFrbICVVhtS0dKRnZmNk9BhzNyaZCrjKYxJEAuRy0AwEqQZyISjGwBOoGDGQ6rjIyICeQ0HOKWZUW7J3zwE4iwVYAgLaR0oiUw5OYYiSlsFFEg4reze+AEtRFaqMKwhF0RfF0m0iCQpIEmHQNo8piOCoZB7ITM4sQlh0Itw8/fDVV19hDSOGsrIyGBgYwNjYFH4BQaiorIUsPQt9g/t41iQlStGA5+Rw847C9WCEoSIFuv/chSs8uEnTomeZ0f1HT0zh9JlpbNsxAHtLiSAHAQFtIzUpHXaOoYiWVXByMLZ0ZsRQg4iUYmXX7RpOFEQQRA7SglokZVW9qiuZV9kG/+AorF69GoFBwaiqqkZLqxxJycnYsGEjNm/ezLYbUFZSguLiImzZtAU7ewfZ42nYf3BE4SJcusa3FFugWQiKKRBp0HQokQMRApEFFZAhYhgZm1CUrWeEsZu5Mo7WQjkICGgdVCbOziEESTm1cPAIhpWDB1MR5UjMrOJl6qnoLM1aEFHwSlG5NbwgDBEFxSn8wpNgYmqB5tYOHge4e49qNSi6Zp8+PQlHRydODtPT0+jr64OpmSX2HTiKwaFhbjSTQfkQ5CaQURCSellQTwuqKEUuBMUgiAjoNhWSoe04O25sfIoRzX442/gLchAQ0Dao1ZyldQDiGBm4+4bDgpFDYEAyXK184WLhAy+XMN47k7pfUS8LKltP3a+oRH1USgH0DYzRwIjh5CRVfpp+tZaCUptfvgBu3rwFW1tb6OvrY/369ey1bLF9Ny3UOoFDoye5GqA0a1IC46fO83UZdJvup30iAVoKTi4F3U+Pn6LkKvZatH9o5DicBDkICGgX1GHbzswbzl4xiM+shqNHAEzMHWGv5w7ztXaw2OgEi3X2cLELRlhCPg9AhicWcQVBZmrjgui4ZAyNnOQrMo+dpIF9gbsGRBCUwUhJkKOjR7Bs2TL4+vpCKpUihh3Tt3cUew+N8VWdVByGCIIyLUk1UCxh6PBxrhAoT4LWbBAR0AKvU1PTfCn4Qfaax8fPYHTsFFztgyCXtwmCEBDQFpLiZTAw8lIoA6YI9Iws4OwWjOAQKcLi8hGZVITguFy4uUYhLCaHt8wjUghNLkJQTCZTDSaol+/Abjao+dTlyDjGjk/x2pHTlNegJIinT58jLCwcRkZGCPDzQ2JaFj+GyGDvwTH07x/lhWmpmS7FEw6y20Qwh0fH+T65FPQY1YwgQqDq1sdOKmpGUKq2q30wKsorBTkICGgD7e0dMFhvC0fXEMSxQe8eGI/N+saMJEo4CVBAkgiDpjQTmMtB/SyIGOj+qLQyuPlEwMnNG23dA7y2JC3Covb5VEuSEp8m2IBWKYiHj5+hs2sr9AxNEJ2Qjsa2Hr4Wg46j3AhSD5R+TVtyNYYOH+OkQS35iQD2s9t03iPHTr9SEkQWqtJ0ifG5iIsSjW4EBLSCstJy2Bg7ICEyAQ6OgTBnLoKdK7uqZ1XzACRtIxgZ0MwEkQR1wiKFQZ2xiBzMrJ0RGp2E2tadfLVmJxvoNMAHho7ygUxTjXTFPz99FTdv3cfwyBHYObqgsaOXP5/WZmzduY9b78AwJxcqbU9qgkrNHWDEQARBKoLcCbpNz+vfzwiBkQO9FicRRkgd3XtgZuCOTFkeOjo6BEkICCwGsWFx2D+wH48fP4arnQdWrFwHV0kkwhPyERyfBxfPSOZa5PAFWaoO3KQaaEvTmKYW9ohOykJJLaVP73g12CmFmmo7HGAD/ChzMejKT6nTE6fOwN7BGWV1nbwOJa3qJKOEqW6mHogc6FhyN4gYaJ8WcdHt3QOHGemMclVBZKBSKeSOFBTVo6W9B03yHjjYBsLFzh+pyemorKji6zYKC4oRHhID4y32WL3MUBCHgMCb4OfmjxPHTuDsmXNMQdjC4CcjxITHw8nWExYmjkiKSYabvTecPcLhE5SM0MRChCQWcNciVlYBI1MbRh4ZyK2Qo6i6gy/lpmpR7dsH+FW9n0l+GsyKmYgLOHZyEnaMHAqr5HwZuIJQFFWlaGUnLdwictnee0CxDHyvYhl4DyMCUhNkRBKUgUkEUlTaBHsrP7jYBsDWTAIP1wjIMsohTS9FgH8SXJ3D4OQQDEf7YPy0ygr6P9mhvrZRkIOAwJtgtMEa65ZvxoYf9PDj1+uwa/su/PLyJdqa5PBy9MbLFy9QkleKMP9wFGQXwcU9FOHJxQhLKkJ4SgmMzWzhG5qIjKJGnk5N2ZJEEI1MQXSwwU3l6geZgqBZDIpB9O89CEsbB04OpUxtUC3K6ubtaGAuBimI1q4+RhR96Nq1j6/NUG1VioLIghZ3FRY3wM0xhJGYP4qLykAzLu3t7SgpKoW/TxgjDC/YWEhgZ+0Pa0YaNM2ZGCdDW1u7IAYBgfmgubEF2Zl5SIpPhR5TDRMnxnl9hf6+AUQzGU6oraiDnJEFFXuMi0iCX0Q6dy3iMiphaecOZ68QpDAXg1ZwKsrZy/n6CxrwpCDoyk9Bw5Fjp1FV2wQrOxf2nDa+iEtFEKQiqOcmLf+msnNUtJaqW7d3D3AlQeSwjZFCbl4NrEwlcLTxRVFBqRjoAgJLAXtLJ9ia2KGFEUFVWTWkCTJODqX5peju6ua3q8tq4ROcrGzVXwFXSThfpJWQVcVXcVKaNa23UFWpphgEEQQN7sGDxxAYFArvwGjkMTeE0q6Lqjo4QdBCLmqOQ92zKBbBj2PEQCRRzc4THZMNC2NPeDgFoaS4TJCCgMBSI12aBVM9Kyz/fAWsDW2wvWs74sLjsat7FyeH9qZ2HnuITCvjbkVwfA426hkhJCEXSTnVXFHQLAet1qQCtLRak5Zxd+3cj5rGdhgYmiBWWoKMwka+mIuqTFGrPaosxRUEczHq2PNrGEFkMZXg6R7FZyBC/GNRXVUjSEFA4G2jvKwSAT4hWPf9Jnz72ffQX2eAmNBo+Hr4MTciHL6RUvhHpsHRMxjfLv8Bti7enDCodT/NZNBaDGrKS0HK8gYKPG6DpY09nJgLksTUBRGILL+Ol77PLaeOWh0oZm5GRn4tAoNTYWboATsLb6SmZKK1VS5IQUDgXQMF8CjgFxYSBRNDK6xe/hO++2Y1vv1mBb756gesWb0JtpauWP7tSrhIqB5EJTdyOVLYlT+jpJmphBpY2TrA0t6DuyOUTEX5E7T8mxZvxaYUwScgEWbGXrAwckdYUCyqhEoQEPhjQy6X8yt7eFAcvvjsWxhb2cMnNBH+0enwDUuGo7sf1q7bBCtr5hrE5SIgMhPuPglwcY+GhYUPjLa4wtbCE1Fh8agsrxaEICDwZwSt0Vj13SZ8/eUP+OGHNUxZrMAP366DuaEzrE2YKjB2h72VN+9rGR+TjNKSclD6tvJwAQGBPzuo47WnawBSkjLQ1NgsBr+AgICAgICAgICAgICAgICAgICAgIDA7/GXv/w/ufUvbNMpEB0AAAAASUVORK5CYII=;" parent="1" vertex="1">
          <mxGeometry x="515.7" y="814.85" width="76.61" height="45.15" as="geometry" />
        </mxCell>
        <mxCell id="KDZLqLgYZf37Dj3iUJCh-70" value="" style="shape=curlyBracket;whiteSpace=wrap;html=1;rounded=1;labelPosition=left;verticalLabelPosition=middle;align=right;verticalAlign=middle;rotation=-90;size=0.5;" parent="1" vertex="1">
          <mxGeometry x="538.56" y="824.0000000000001" width="20" height="130" as="geometry" />
        </mxCell>
        <mxCell id="KDZLqLgYZf37Dj3iUJCh-71" value="DB cluster" style="text;html=1;align=center;verticalAlign=middle;whiteSpace=wrap;rounded=0;" parent="1" vertex="1">
          <mxGeometry x="499.80999999999995" y="906.5000000000001" width="97.5" height="25" as="geometry" />
        </mxCell>
        <mxCell id="J8isVeByOe3DuS4LRNTW-12" value="" style="endArrow=classic;html=1;rounded=0;startArrow=classic;startFill=1;" parent="1" edge="1">
          <mxGeometry width="50" height="50" relative="1" as="geometry">
            <mxPoint x="616" y="791.32" as="sourcePoint" />
            <mxPoint x="666" y="791.32" as="targetPoint" />
          </mxGeometry>
        </mxCell>
        <mxCell id="J8isVeByOe3DuS4LRNTW-14" value="" style="shape=curlyBracket;whiteSpace=wrap;html=1;rounded=1;labelPosition=left;verticalLabelPosition=middle;align=right;verticalAlign=middle;rotation=-90;size=0.5;" parent="1" vertex="1">
          <mxGeometry x="715.51" y="792.8900000000002" width="20" height="130" as="geometry" />
        </mxCell>
        <mxCell id="J8isVeByOe3DuS4LRNTW-15" value="RoadSense APIs" style="text;html=1;align=center;verticalAlign=middle;whiteSpace=wrap;rounded=0;" parent="1" vertex="1">
          <mxGeometry x="676.76" y="869.7400000000004" width="97.5" height="25" as="geometry" />
        </mxCell>
        <mxCell id="J8isVeByOe3DuS4LRNTW-16" value="" style="shape=image;verticalLabelPosition=bottom;labelBackgroundColor=default;verticalAlign=top;aspect=fixed;imageAspect=0;image=https://rustacean.net/assets/rustacean-flat-happy.png;" parent="1" vertex="1">
          <mxGeometry x="674.39" y="819.2099999999999" width="59.06" height="39.42" as="geometry" />
        </mxCell>
        <mxCell id="J8isVeByOe3DuS4LRNTW-17" value="&lt;font style=&quot;font-size: 14px;&quot;&gt;Rust&lt;/font&gt;" style="text;html=1;align=center;verticalAlign=middle;resizable=0;points=[];autosize=1;strokeColor=none;fillColor=none;" parent="1" vertex="1">
          <mxGeometry x="726.62" y="823.9200000000002" width="50" height="30" as="geometry" />
        </mxCell>
        <mxCell id="J8isVeByOe3DuS4LRNTW-18" value="APIs" style="shape=process;whiteSpace=wrap;html=1;backgroundOutline=1;fillColor=#f5f5f5;strokeColor=#666666;fontColor=#333333;" parent="1" vertex="1">
          <mxGeometry x="670" y="764.85" width="109.26" height="50" as="geometry" />
        </mxCell>
        <mxCell id="J8isVeByOe3DuS4LRNTW-22" value="RoadSense Client" style="swimlane;whiteSpace=wrap;html=1;" parent="1" vertex="1">
          <mxGeometry x="840" y="738.82" width="130" height="112.5" as="geometry" />
        </mxCell>
        <mxCell id="J8isVeByOe3DuS4LRNTW-28" value="" style="shape=image;verticalLabelPosition=bottom;labelBackgroundColor=default;verticalAlign=top;aspect=fixed;imageAspect=0;image=data:image/png,iVBORw0KGgoAAAANSUhEUgAABLAAAAJzCAYAAAAfjervAAAACXBIWXMAAAsTAAALEwEAmpwYAAAAAXNSR0IArs4c6QAAAARnQU1BAACxjwv8YQUAADEJSURBVHgB7d1dbhRnty/w5bazpa2d7O3YRspdOiOIc3fuYkYQMoKYEQAjwB4BMALICCB35w5nBHFGkModEtjxayLtI0Pb51lQzksIH/7oj3qqfz+p1bYJxN1d3VX1r7XWEwEAAAAAAAAAAAAAAAAAAAAAAAAAAAAAAAAAAAAAAAAAAAAAAAAAAAAAAAAAAAAAAAAAAAAAAAAAAAAAAAAAAAAAAAAAAAAAAAAAAAAAAAAAAAAAAAAAAAAAAAAAAAAAAAAAAAAAAAAAAAAAAAAAAAAAAAAAAAAAAAAAAAAAAAAAAAAAAAAAAAAAAAAAAAAAAAAAAAAAAAAAAAAAAAAAAAAAAAAAAAAAAAAAAAAAAAAAAAAAAAAAAAAAAAAAAAAAAAAAAAAAAAAAAAAAAAAAAAAAAAAAAAAAAAAAAAAAAAAAAAAAAAAAAAAAAAAAAAAAAAAAAAAAAAAAAAAAAAAAAAAAAAAAAAAAAAAAAAAAAAAAAAAAAAAAAAAAAAAAAAAAAAAAAAAAAAAAAAAAAAAAAAAAAAAAAAAAAAAAAAAAAAAAAAAAAAAAAAAAAAAAAAAAAAAAAAAAAAAAAAAAAAAAAAAAAAAAAAAAAAAAAAAAAAAAAAAAAAAAAAAAAAAAAAAAAAAAAAAAAAAAAAAAAAAAAAAAAAAAAAAAAAAAAAAAAAAAAAAAAAAAAAAAAAAAAAAAAAAAAAAAAAAAAAAAAAAAAAAAAAAAAAAAAAAAAAAAAAAAAAAAAAAAAAAAAAAAAAAAAAAAAAAAAAAAAAAAAAAAAAAAAAAAAAAAAAAAAAAAAAAAAAAAAAAAAAAAAAAAAAAAAAAAAAAAAAAAAAAAAAAAAAAAAAAAAAAAAAAAAAAAAAAAAAAAAAAAAAAAAAAAAAAAAAAAAAAAAAAAAAAAAAAAAAAAAAAAAAAAAAAAAAAAAAAAAAAAAAAAAAAAAAAAAAAAAAAAAAAAAAAAAAAAAAAAAAAAAAAAAAAAAAAAAAAAAAAAAAAAAAAAAAAAAAAAAAAAAAAAAAAAAAAAAAAAAAAAAAAAAAAAAAAAAAAAAAAAAAAAAAAAAAAAAAAAAAAAAAAAAAAAAAAAAAAAAAAAAAAAAAAAAAAAAAAAAAAAAAAAAAAAAAAAAAAAAAAAAAAAAAAAAAAAAAAAAAAAAAAAAAAAAAAAAAAAAAAAAAAAAAAAAAAAAAAAAAAAAAAAAAAAAAAAAAAAAAAAAAAAAAAAAAAAAAAAAAAAAAAAAAAAAAAAAAAAAAAAAAAAAAAAAAAAAAAAAAAAAAAAAAAAAAAAAAAAAAAAAAAAAAAAAAAAAAAAAAAAAAAAAAAAAAAAAAAAAAAAAAAAAAAAAAAAAAAAAAAAAAAAAAAAAAAAAAAAAAAAAAAAAAAAAAAAAAAAAAAAAAAAAAAAAAAAAAAAAAAAAAAAAAAAAAAAAAAAAAAAAAAAAAAAAAAAAAAAAAAAAAAAAAAAAAAAAAAAAAAAAAAAAAAAAEDfLQTQCSsrKyfBNDWnXywsLJx+fXBycnJQ7n/Pr/Pn5Xbw6aef7jZNcxAAAADMhAALOkKA1XkZYGWg1ZSQ69dyvzsYDJqnT5/uBgAAABMlwIKOEGDVq4RZOxlolWDr508++WT3yZMnTQBAR62urj4u+6yNqFOzv7//VQAwd5YCgEvJk4D2RODm0dFRhpG7GWiV73/67LPPdrQfAgAAXI4AC2D81kugtV7uNw8PD/NK9075+sdPPvlkR3UWAADA+Q0CgIlqK7TuHx0d/ZZtG+W2GQAAAJyZAAtgik7DrJWVlQyz7n/xxRfDAAAA4IMEWACzMSxB1mZblfVwbW1tIwAAAHgnARbAjJUg69rx8XG2Fj4WZAEAAPyTAAugI7K98DTI0loIAADwbwIsgI7JIKttLTQjCwAAIARYAJ3VzsiyaiEAADD3BFgA3ZbD3u+rxgIAAOaZAAugAm9UY10LAACAOSPAAqhHVmM9XFlZuR0AAABzRIAFUJ+t1dXVh8PhcDkAAADmgAALoEInJyfXDg8PH5uLBQAAzAMBFkC91nMulhALAADoOwEWQN2GQiwAAKDvBFgA9RNiAQAAvSbAAuiHDLEMdgcAAHpJgAXQH+vPnz+/EwAAAD0jwALokZOTk82VlZXbAQAA0CMCLID+2VpbW9sIAACAnhBgAfTQ8fHxffOwAACAvhBgAfTT8Pnz5/cDAACgBwRYAD11cnJybXV19VoAAABUToAF0GMlxLqjlRAAAKidAAug34aHh4c3AwAAoGICLID+u/HFF18MAwAAoFICLID+W37x4sXtAAAAqJQAC2AOnJycbJqFBQAA1EqABTAnzMICAABqJcACmB83VGEBAAA1EmABzI/lw8PDzQAAAKiMAAtgjiwsLHwXAAAAlRFgAcyRk5OTjbW1tY0AAACoyFIAXbEdXFbOd/qfEtIsDwaD5bwv3w/bn9M6Pj7eKHc7AQAAUAkBFnTE/v7+VjARy8XS0tJ6CW7Wy7d5+7q9n1c/lNtWAAAAVEKABfTeQRGvK452Tn9WMq3h4uLiRrbUxetAZ54M8/GXp6UJAACACpiBBcylDG/29vYe7O/vbx4fH3++sLBwvfy4iTkxGAyuBQAAQCUEWMDcywqtNsz6al6CrLbyDAAAoAoCLIA3zEuQVR7ftwEAAFCJhQDgnXJO1GAweBg9Hfh+fHz8zcHBwW4AMFdWV1c3T05OhlGng3Kh6W4AMHcEWAAfsbKykgfKN6JnssosK84CAACg4xYDgA/63//93//7n//5nxn4b0SPlADr93xsAQAA0HECLIAzKEHPTgmxPi9f/p/oiRJg/b/yuH4MAACAjtNCCHAOKysrv0R/ZmLlHJHPY47lnLNPPvlk+fj4eP3k5GQ5fzQYDP6nfL98+t+UoG94+nX5b5o3/vrv7Z/nzw7K/cHLly+bg4ODJgAAgLESYAGcQzvYPUOs5eiB//7v//68aZqD6Ll83RYXFzdKyPR1Di4utwwhhzE5uxlslf/Pr+V+t2wzzdOnTw3MBwCACxJgAZzTysrKVrm7HT3Q15UI19bWNrKqqoRH35YQaSO6EThmldZu+X1+KoHW7rNnz3YCAAA4EwEWwDktFyWA+C16UIVVApXv9/b2HkXlhsPh8vPnz6+VcOjb8u21qOO1yUBrp9z/9Nlnnz2ah0o4AAC4KAEWwAX0pQqrBCjXS4D1ICqUodWff/6Zs6tuty2BVQeK5bXIIPGnWl8PxidbXpeWloZtu+ur2WztH315+t+UEP3g+Pj4X+23r2awZdtq3mtX/bs3Z93l9/m85v3b8+6inWuX3pxt9+mnn+4KmAFg9gRYABfQoyqs7f39/a2oSLYHlrvvyonnZvRkFtlbMoTYKSfc20+ePGmC3joNYd9odx3nbLamDbSybfXnsj3t9n17evP5LN9+Ha8X3BjGeD4nMsBq2tl2P2sDBoDpE2ABXNDq6urjdr5StcrJ2L29vb2bUYEMrtpqq42YE22L4b0+tHnyWjuf7dvy2m7MYFvOxQXy9mNfwpd2YY1r5TF9N4tKzHyP5ly7xcXFHZVvADBZAiyACyoB1mY5cbkfdXuwv79/PTqsfZ5vxOtqinmVlR/btbQXZiXMwcFBldVxJRA5GHe7WD4fh4eHuQ1vxmRXvzyPaiv9Ovp8pqbc7v3Hf/zHI9WTADB+AiyAC2qv/P8WdetsgFWCqxzKfie6dYI6a03Z5q53vXqm8nB3bG21tVQNtpV+P3Y9IK2pCrM8pw+6XOl22m4ZFVpaWmo+FhC2+4/eXPQooeiDWkLR9vN/GJXKNmGzKKG7lgKACzk4OGhWVlayUqPaOUzlIPPz6Jh5bBU8h+Hx8fHjcoLwwIys7jrdhstrtREVaN9rG+Xz7HYXK/3aE+J8PodRifL75u+8WX73nXxOuxZktau2VhkyHx0dbZe7rQ/9N6PRaLeE/fn4ejEn8cWLF7nC7tXouC+++GJYXp+qK9PLtvNNAJ01CAAuo4mK5Spc0RFZEVBO9u5nQCO8+rA8MS4nCb9k4BB0Rp685Wy8irfhXPXwfr4P87HEjGUQWLbx39qgZRgVyu2gDZ078ZzOi7zAVILDW9ETuR2V90Ln51WW/dLjqNt22XbMsoMOE2ABXM6vwaWVA/Mbh4eHeaK6GZxVVhZs5Qm+E+PZyzAxQ8U+hK9vBKQzOWG+cuXK+mkQGD1pIW6f09+EztPTVhLei/643eXP+rJt197y/6C2VZlhHgmwAC5nrMOe581pxUr58m70pNVjBoazDBvmXW7D5bn/JV63NPVpG87HcmfalUMZ8IxGo14Ege+xlZ95QufpKCHoVlReKf2G5fJZ/zA6KGeOlbua90FN2Va2A+g8ARbA5VQdYJUDtn/FjOQBb18qVjrgr7AhWzGDqSjP9w+5DUePV8hsK4cmHri8FQT2Wn7m5XOalWbBRB0UZT/3ffTnYtP62traneiQfO+2C65Uq2wjV7PtNIDOE2ABzLGFhYU/Ygay1aAc8OaVZGHLGGXYcHh4+IvqjsnLSqHyfD+I+diGh5MMXOYhCHyHYVaaqZycvHamUW+qa0rYcjPnw0VHvHjxIttih1GvW8IrqIcAC4CpeaPKwknb5AxVd0xWO+tlK+ZLBi5j367mLAh8lzvmYk3e/v7+3XLBZid6ooRYnai2zfmVlc+uzLlXdwOohgAL4HJqP+n6PaYkT3zbFYoEK5P3Kmxo55IwRtmmGfMbwC7ndjWOCr/TVUdj/oLAd9kSYk1e2XazlbCJfhj++eefM91m2s+BmsOfnHvVm5UqYV4IsAAup/YAaypzQbJFKE98oycrilViOds087kPxqJtfd2M+bZ82ZlYGV4dHh4+9lz+zZb36mTlPKzBYHA9emLWrYTtBalaHbRzryzEA5URYAFcwsLCwpdRsfL7NzFhbYvBgzDvaibyuXdifHlthYzW19eyTfXhRVqYTsOrUIn5D/le7dJsoz569uzZTrm7Fz1RQpiHs2glbD8Ph1GvbXOvoE4CLIBLKCccVYcyJcCa6NXH9iDXfIkZE2JdToawodXtbesXaWF6/vx5tg0Kr94jZxtZhGGy9vf3b/ZoHtZy+56amjZk3YpKldf+nrlXUC8BFsDlVH0i9umnn+7GhLTh1VbQCao7LqYHc14m5rwtTG0LprlsHzZ88eLFVAOJeTQajbKVsBftY/memtZqlvl5mCFr1Kspr/1WANUSYAFcUA/CgIOmaSZyAC+86qZsN1HdcXbZmlP5nJeJO+tqaFowz64EEhvTCiTmVbaPLSws9GYeVnF7Gp/tJVytuXXQ3CvoAQEWwAWVA6Gqq6/KwftEqq/aVrWtoIteBTJdWH69BoeHh7XPeZmGYXmePhi21N5yNCO3hc2Ttbe39yj6Mw9redKVe+08y82oVDnmuWXuFdRPgAVwQeVg6Luo268xZleuXFlvB7bTXcPnz58/DD6oDV1UwZzNe8OWHrQczcqyVsLJK9vmVrlrogcmWbnXvr+3olI596oElg8CqJ4AC+AC8mAuDxajbjsxRvmcjEYjwUgF2hOdcw/gnidCl/N5X9hSecvRTOX71Ny6ycp2smwri57Mwypu54WkGLO2lbrWyt2mhFcuRkBPCLAALqA9KavaZ599thNj8sasoGFQiy0nx++2urq6Gbblc3lX2JLPY80tR10gSJ28tq1sO/phuVxIGus2017sGEadmjagBHpCgAVwTm311WbUbXecA9zbZbyHQVXOOoB73pT3t+q0CyjP2w+nX7efk57Hyxu2gSoTtL+/f7dsr4+iH9ZLmHwnxqD2+XULCwvb5l5BvwiwAM6pD9VX5aDu5xiTvDqby3gHNRr++eefQoa/yxBmGJxbBvungejR0ZHncXx+CCaubL+5KmETPVAuTty8bIVtD+bXbZt7Bf0jwAI4h3Il/FofWmJKgDWWK821D3ZlPCc6PTMMLixXJPS5MF5mYU1HzsMaDAbXoycuW2Fb+fy63f39/a0AekeABXBGbUvMWMryZ6x59uzZTlzSG3OvqJw5O4zRjT5UqXaNdszpaPeNt6IfLlxhu7KycqPii3U59+r7AHpJgAVwBhle9WhI+U6MweHhodXF+mNYTli2Ai5v2eD28csqLPPqpiPnYS0sLOxED1ykwrb2Csry2t0y9wr6S4AF8BE9C6/ygPZeXFJ7gGtZ6n654QQZuqtcNNgMpmI0GmUr4dgWOpmlss9/eJ7P9vZ4p9Z9Qc696sswfuAdBFgAH7C6uvpDOZj7JfpTabRbrkzuxiVpHeyl5ZxfFEAnLSwsfBdMRVbwDAaDvrShLbcrBX9ULsoSlR7vZNWcuVfQfwIsgHfICqMSXj0+OTl5EPVeifyHcoB36eqrnI0RWgf7ShUWdJQ2wulq52Fdep/ZBblScNl3f/ACxZUrV9aj3tbBpq2aA3puKQD4y/Ly8vri4uKNo6Ojzeif5rJLSrftlH2s0jko4d5uOcj/tXzdlK/zdvDy5cum/fPlpaWlnO2Tt2H5Pg/0v27v++S0CmsrgM5p2wjvBlNxfHy8NRgMvo1+fNbfLvvwR0+ePGne/oN23/4wKpWrR+7v7zcB9J4AC5h7eUU7TwqyPSOvcJdb9FF5fNtxSZUvq/22nG/yYznwfXTRVRlL4DksgedG+fKH3HaiH7IK627TNL2Y/wJ90rYRCrCm5KAon/Pfl/1EjhKovfptuezDs5Xw6tt/UPm+fXscKysDddBCCMydDB1WV1evra2t3ck2wRJe/VF+fKdHAcS7jKX6qieri2V11fVyZf2rcsX25mUOfHNOSj6v5XY1/73yox+jfmZhQUeVz+C+VX12Xrui3aUvAHVBHue83UpYjoM2a923l9/7kblXMF9UYEFHZKgSjMXS0tIw77PVK1u+ypXTL0u4kFdO88A//yzbwKKvlVbvMsbqq5plRdG9SR3stic5m+Vk4FHZtu5E3ZVqOedsK4CuWS4XXzZUnExX2W/cLZ/t6+Wz/Yeo350rV67sPH36dLdtHbwTdWrK63ErgLkiwIKOKCHLb8FYlLDqg9/Pod0xzb7ajHo1ZTu42oZME5VLeJdAeqe8p7fidRBUIyfJ0FHlsywvxuwEUzUajW6287CGUbnyWO4Ph8Orh4eHOfeqytbI8j74fhr7dKBbtBAC9Fwe5MUl1Vx9lUtrl+fgm2ke6ObclGxPjIrbTsqV7dor7qCvvg6mLj/Xx7E/7Yj1El49jnqH02+Xl2M3gLkjwALot+3LBjc1z77K+Rg5nypPPGIG2nbFKkOsnJWSCxwE0DUbwUy0oUlf2tZqDa8emHsF80uABdBfzTgO8l68eLERdcr5GNdjxtrX4F5UKFfnDC4qQ9Om3HazCjBv7fdWd7ycJl4vxHD6nO62P5snQ+Hy7OQ8rHbbY/pyHEAvBuoDF2MGFkA/vZr5FGNQaSvZ6cyrToQF2U64srKSs1OquuJdTtK+K3d3g7Noyu2nPLEdjUY7H9r2loulpaX1so1eK99Wt11MUT6Hj8pz+nP7nDYf+o/L07q+uLiYz+t35e9cix4rz8UwXod3zEDZHq8PBoNswRsGUzOtWZZAdwmwAHqoHFhfL6FJE5eUg7zLAeMwKpOrLnbtIDdnp5TX5ZeoaGDuaRth0zSqht6jrQTaPs/A+zbc2mlvr4KXsm3kzLQ+rHA2Dk253SvvmQfnCaHb9q68PciVfctzmiFWLqQwjJ7JoC4EWDOT+5eyf7xettHHwbTcEl4BWggB+md7XKvHVbpk+KVXXZyE9sC7ulbC58+f97qS5RJ2S0ByNWesXfb9lsFLCZw3SxCWLa9NzK8Mq26V5+KrbNO6TAVlvt/y38iKjZyFFz1THtMwmKn2fV9le3iFcu6VamBAgAXQM9vjGm6abU41Dm8voUJnB+yWk+k8AK+qmqlsA98Gf1OCpnvlffbNuILiUxm8tq2/TcyfbPv9ZtwnqRlk/fHHH7lyXN/m5nwZzFy72qxKuMnKz4a+DM4HLkmABdAf2+NcmWdxcbG6ypts5xp3qDBObUVJbVfsVWD93XYJmm7GhGTgMoch1m6GV5NsD6p5MYV3KcHy50EnZHt4WJxhUg66NM8SmD0BFkA/jDW8an0X9en8CWpbhVWTLMYbBmkS77N/aEOs72M+TG3BhT5Vy5Sw/uugE/L9Wl4PFUKT0bl5lsBsCbAA6jeRk+oc4B11afb29jo/6yZP1Gtbgr0dhj3vHkwjvDrVDiTv+3LxU18ttMstxudUzWIQ86Cdu2ge1hi1rdrmXgF/I8ACqFcGId9P4qQ6Vx+M+k6QdqISJRz8Keoy79UeGbRMPUyqcWbaecxitdC2xfjHqJ8Aq2PK+3Ur5nsRhnFqRqPRVgC8RYAFUKdXM2MmVXFU/u3qKm4Gg0E1J6Xl+a1tVbSNmGOzCFpSpTPTzurBrFYLLZ8VD6IHhsOhEKtD8v1qHtZYmHsFvJcAC6AyWVbfHtw1MTm1rTx30OXh7W9rX7uaDs6H83qynO2eswpaUoUz085kFhVtp/KzorY23ncpnyMCrI6Zk9bficp5YuZeAe8jwAKoRzMYDK7mCmiTvDL5xRdfDMvdelSkHPBWN5i5thPosskNYw5l9VXMUI0z087gwaxPUE9OTn4OmICc29TD9+xU5AW6WV4wALpPgAXQfRlW3SoHxV9No8roxYsXVYVXqcaT0fI7/x4VWVxcrG67GIOmC5V9Fc5M+6Dj4+OZt0WW7bm2Nt53UYHVUaPRKFsJm+A8ciGWmwHwAQIsgO7K4Gq7nOx9Nc2VeCpcfbDKCqyo7OSmbBfDmDOzrr46NRgMaty+32e3bbOaqadPn+bvUPWMnaWlJQFWR2XlZHnfXg/O6tWKpAHwEUsBQNe8Gtycs29mMcS0nLR/XcKKqMxyu3JiTb4sr3FU5MuYM6PRaCc6IKvAVlZW8rOgD4FFZxZbyOC7xsCeOrTv26w2vBF80KwWygDqI8AC6IY8OX2UK+nNumWpnNDV2EJ4v8LQrSrlBGMYcyRn2HTshKqJymbTvUuXVuAsnxm/xpyvsMlk7e/v31xdXf1aUPpB2+ZeAWclwAKYnabcfiqh1aOXL1/udmHJ6OUizFXhHeathbCDc6cybKk9wGq6FAq2FVgBkzQaja6X/fwvYd/6Lrsl5NsKgDMSYAFMR1NOlHbLCdPvWdmRrUldCKzetrS0tF5ZWxvTM1cnX+V9sBPd0kT9dqJDymdxI8Bi0jK0XV1dvV62tYfBm3Lu1fcBcA6GuANMSbkCm3dNuW+6GF6lcjA5jyvNcTbLw+FwXkKsgy4MGn9Thi1RufIYOrVa6MuXL5uAKdjb28vW2Zmvvtkl5fPglrlXwHmpwAKYjmHbgnVtNBrFyspKk5VY5TbzmVdvGQa8RznZyACr6pXbzqKLq1r2oVqofPZ17Xnt/bZMd5QLRFvlAtZ3YT+btttQD+BcVGABzEYGWpvlgPZxCbN+W11dvf/FF18MY8bKSfLcrTQH7/BrdEwfqoW6VtXWVsIKsZiK3N7KPv9qzPk2lxfvzL0CLkqABTB7r8Kso6OjDLIel9tmzI4hs7zX0tLSMObDTjBunatqawmwmJq2ZW475leTQ+0D4IIEWAAdkkttl9v9tiprM6Zs3laag3dZWFjoXKhR+6yY8tnyewCxv79/t7wf5rJ9bjAYXDf3CrgMARZAN2VV1v0ZtBYOA+bcp59+2tVqoWrl4hXRQX0Yjk99yv49q5CamC/bHZv5CVRIgAXQYaethSsrK7djwpaLAKJpGm1lY1Y+y5oAXsl5WFmNFHMiK87MvQLGQYAFUIetnI814WosARZ0uyqi2mBNpRP8XVuNdCv6L1dQnYfHCUyBAAugEjkf6+jo6HEXViuEvup40FJzgKWqDd6S87ByVb7osePj4+/NvQLGRYAFUJdhCbF+uXLlynqM2RytMAcAndCuytfXgHe7hFdmCgJjI8ACqM9yOeD9ZXV19YcAxsqspsl4+fJlE8A/ZHXSwsJCH+dhPTD3Chg3ARZApcqJ9t1JVGIBANOzt7f3qNzdix4ZDAY/BsCYCbAA6pWVWGZiAUDljo+Pt8pdb9rtyuO5EwBjJsACqNtyDnYfDodWEIQxWFhY+FcwdoY4w4eV98jBYDDo02p962tra0IsYKwEWAD1G/7555+345KsEgavWnO9D4Cpy2rq4+Pj+9Ej5fHcLCHWRgCMiQALoAfGcZD44sULJ+4AMANlH5wXoobRM+X45KFRB8C4CLAAeiKv3GolBIC6rKys3D45OdmMflou4VyvKsuA2VkKoBMGg8HV4FLKwd+w3DLAyfsvFxYWhuXreVqlb3h4eHiz3G/FxajAAoApytWER6PRVvRYOSbbyHlYz54969OML2AGBFjQEWWnvhNMRLbWHR8fr5dA67s8iIp+uzEcDu82TXPuMCoHyJarwAEATF621h0dHT2MOdCOOvjJ8S5wGQIsoPfag6W83V1eXh4uLi5ulCCrl7MmiuVLVmE1Ud/zksuO/xRM3MuXL5sAYCza1rphzIl2HtY3T548aQLgAgRYwFxpl3J/kLeVlZWtcn+j3Po2N+rCVVhRZxvh7v7+/lYAQCXauVcbMV9O52EZmwFciCHuwNzK0KNcDfwmXlcd9UlWYW3GBSwsLDRRmXbWGQBUYXV19VpcvFK6aqfzsALgAgRYwFzLiqwSZH1VQpAfo0dy3ldcQDmw/D0qk8P7AwAqkHOvyn5rrgOcdh7WRgCckwALoNjb29vsU4iVVzhz3lecXxP1GRZ9awMFoIeOjo4exxzNvXqfEmLdzzAvAM5BgAXQyhArXg8E74XBYLAZ51RjC2F6/vz5RgBAh+XcqxBenRq287AAzkyABfCGckXw+6hzkPk/lDDq2zin0WhUa4C3EQDQUaurq5sxp3Ov3ierxdtQD+BMBFgAb2hXKdyOHsgDw/O21rWPv7oArzzWC838AoBJM/fqg7bMwwLOSoAF8Jb9/f270ZNWwufPn18751/Jyq0aH/vQATAAXZMXktq5V2Y1vod5WMBZCbAA3qGEOPeiH9bjnMpV4l+jQuX3PndY10V5EJ9LrGcgl4P4DagHqNfh4aG5Vx9nHhZwJksBwD/s7e09WFlZyXL/qsODEuqcew5WCe92yt+7EZUpv/MPJezZapqm6hlm5SD+dnksm+WWg/jz5CcH/+YfNe2Q/YO8L1es/5X3p4P3X7582bQtoAB0QPnszn3pzeCjTudh7e/v92KMAzAZAiyA98sqrNqHiw7jnEaj0U4GJxVaLmFPnihsRaWy+uro6GjzPX+cM1SG+UWGW6f3p1/na9YGXRngZbCV9/8Iu/LnJSQ7EHYBTE77eX43OI+ch/Xzs2fPdgLgHQRYAO9RAoGdcuJfe4C1nG1o5wkrMtlYXV3NKqyNqM+NctLw4MmTJ01UKKuv4vKyanD9zZDr9P5DYVf5s6Z8/Xu0oVf+LG//9V//1dRe1QYwTW149Tg4t5yHNRwOv7HfAd5FgAXwHnkFsJzkN1H57IrFxcWNcvfgHH8lg46fy91G1Ge5naNxNSqTS6xn62BM19/CrlNvhl2nLYwl9LrqqjjAx5X9UI4gGAYXMXz+/PnDqHA/DkyeIe4AH/ZTVK4EEeee45XVZ1Gpdo5GVTNH2iXWO13t9+mnn/ZiZU6ASco5Tn1ZVGRWatyPA9MhwAL4gIWFhT6ctH8d59RW2tRcvn/7ypUr516BcVYquFq/q50D4MPa/c5WMA53cjXeAHiDAAvgA3KgeVSuXMn8PC7mx6jXcnntHmZlU3RcDVfrS5D7cwDwXrm/yf1OMDbtPKyqV4MGxkuABfAB7fDzqitPSvjwZVzAYDB4FHV7NUS3yyFWhldRwdX6sg3Vvi0ATFQ7f3EYjNPpPCyAVwRYAB/XRN0udPWyB22EKUOsX3JAenRMLeFV0RjeDvB+bSXtRjB25mEBbxJgAXzcr1G3y5Tf34v6LZcD4Ptra2t3utCKkBVhJVDL5dW3og47AcA7lc/zbAHfCibJPCzgFQEWwMc1UbcLhzbHx8d3oyfKY7l5eHg402qschX5RlaE1XSlfjAY1DwLDWBi2hVk7wQTZx4WkARYAB+xsLDQROWWl5eHcQEHRXn8O9EfebJxvwRJv00ryMoD7vx/5f+zfJuBYE0H4NoHAd4j5yyGuVfTYh4WIMACOIPa50BdSgmwtqN/3gyy7k+iNSH/zWxbPDw8/C3/X1HnSc5OAPAPZf+RlVfDYGrMwwKWAoAPKgHOQTloipotLS0N44KtkFmBU0KenZ4OqM0gazNv5aD4VbVZ+frnwWCwm6/706dPdz/6DwyHywcHB8uLi4sb5e98Xf7+et6Oj4+rb3Uoj6GP4SXApWRVbfmcF6TMxp0rV67snGX/DPSPAAvgI16+fNmUQCNqVg60LxWmZBXWHKywlMPecxjvtRLcvPpBCbXy7uD01oaZ+VyePp/Lh4eHy7l9ZMhZe9D5pgzzSjDXBAB/yblXR0dH5l7N0Gg0elguHn3TNM1cV8jDPNJCCPBxfThAulSAlVVYPZuFdR753A3Lbb0N8dbb74dR1zyr8zK8HeANWXHbzr2q8rO/R/vxnId1P4C5I8AC+IgcZB70dRYW79bs7e09CAD+UkKTmudebY9Go++j/pWVX8mKafOwYP4IsADOpuoQqxzoDeOS5rwKa64IKwH+roQlN3JeYtSp2d/f38oLcsfHxxli9eXCXM7DWg9gbgiwAM6m6oO9EkiMpd2hXL29HnO+KuMcUH0F8Iace1Xu7kadMrS6+tc3Bwc5/Lw3FynaeVh9bucH3iDAAjib2iuw/ifGoB3qfS/oLdVXAP/WDm1/HJUqn+m33l6QY39//245LngU/WAeFswRqxBCR6ysrGxF/xwMBoPdbD2LyrWrzwUR5Uru3fK6/hD1zgHhPbJFVPUVwL+9ePGi2rlX5TP93vs+08sxzfXy56eLklTtdB5WBnMB9JoAC7rjdvRQCTsynDsoB0mPPvnkk+0nT540UaFycPR7VKw8/8MYk5yhsba2dr28ttVekebd2hZRAOLVxcXbGY5EnZrymb71vj/s4b789pUrV3aePn26G0BvaSEEpmE5B58eHR39lgeDQfXaqjqthP2y/XabCcC8KuHORrnbikrl3KuPraLc7stvRT8sm4cF/SfAAqZtS4g1feNYhfBt+/v7N61K2BtNtoYGAK/mXpXPxJrnKp35gkS23fVoX57zsO4E0FsCLGAWtlZXV2sryW+Cf2hbzpqgarms+seu1APMi6Ojo4dR72yoByWU2jrPX+jTCsNZ8Z/zsALoJQEWMBPlAOOOMu/65RXewWBgblLdtttl1QHmXlslvh51ymrac68km/vyhYWFPu3Lcx5Wra8h8AECLGBWssx7I+pR+5XJYUxIz2ZozJvd816pB+irtjp8KyqVF5QuOstwb2/vUfRntqV5WNBTAixgZspVws2oRLkyqb3qA9qlq8991ZeZyiv13wcAr+ZeZXV41Gu7vaB0YWWfsFXu+lKRax4W9JAAC5iZEgp9G0zNpK9EtpU8Viasw0G7QlUTAOTcq8dR79yrsVTT5izE9sKGeVhAJwmwgFlaVt49PeW4dOLPdbsy4Y9Bp+WsE+EVwGsl5MhKnWHUaazVtO2+oU8V1bezui6AXhBgATM1jVCF6drb29sUYnXarXbWCcDcK+HVjXJXbZVO2d9uj/uCRI4F6NF+fDmr61wwhX4QYAGcQTmQa4IzyxArzMTqou12XhnA3Gsrc7aiUuXY5F7Z3z6ICRiNRhnqNdEPwz///PN2ANUTYAHMj6lefWzncQixumPbioMAr2VFTjv3qtbKnKaEVxOrHHtjHlYvlMdy0zwsqJ8AC2BOLC0tTf0gvQ1MbkVPBsLWKmdeCa8A/q1doW4YlcqFOGLCSoaVKxLeiv4wDwsqJ8ACYKKyZa0caH8T/WlFqMnBYDC4OqkWE4Aarays3M4V6qJet6a1EEc7D2sn+sE8LKicAAuAicsD7bxaXE4YDA+fnnzOv3n27NlOAPBK7XOvigfTnmU4Go2uh3lYQAcIsACYigyx/vjjj5ynYS7WhGVQmOHVtK7QA9Qgw6t27lWt8sLE1PehuS8ZDAbXoyfMw4J6CbAA5kQJNYbRATmLqRw8fhVaCichZ43dyqAwB/AGAH958eJF7XOvvp/VhYm2mvde9Id5WFAhARYAU5cH4CXIyhArh8M2waXljJKsupp2awlADdq5V9eiXtvtUPWZKfuXrFqa6e8wRuZhQYUEWADMTDvgPVdS+jG4qFdVV3t7e1e1DAL809ra2kZUPPcqL1B0ZSXZrAKL/qwsbB4WVEaABXAGXWm/66O2Gmsz2wp7tNLRVJTn614+b6quAN4t28TK5+T9qFfTDlHvhNxnl33PreiJnIe1urr6QwBVEGAB0Al5UJxVRIPB4Kog68NO2wXL83XTrCuA9zs6OnoYFc+9Kp/3212rri37ngfRo3lY5SLlXfOwoA4CLAA6JQfFngZZobXwbzK4yuelbRfsyxwSgInIuVflbj3qtd2GRZ1TLqJsRX9mWOY8rIfmYUH3CbAA6KQMsk5bC+N1kNXEfMoKq1etghlctStBAfABq6urm1Hx3Kui6crcq3fJ6t+ezcNaNw8Luk+ABUCnnc7IylULFxYWrp+cnDyKOdC2Ud5qZ1zdNKAd4GyyHazsK2oOIw7aBU46ra0E3o6eMA8Luk+ABUA1spXijz/++L4d+H69b7Oy2sezfVptlcPZzbgCOJ+jo6PHUfHcq6Jzc6/eJ/dTfdoXm4cF3bYUAFCZ9sD+Qd6Wi8XFxY1y0HmtfP911DXv5KAc+O+W3/2nElo9UmUFcDkrKyt3ou7w6kFtK8uORqPvB4PBL1H3837qdB7W1aZpXECCjhFgAZxBCRgM9uyotkLpUXuLkmcNS6C1Xl6zjRIOfV3uM9DqyuvXlNtOuf1aAqsdg9gBxqeEVzfK3c2oV1P2DbeiMrkfXltbu15+98fRD6fzsKp7LaDvBFgAZyPAqkRbxZS3v2ZllVBrvYRawzbM+rIEW/n1MCZztTgDtYPy7++W/8/vWWFVrk5nUNVoBwSYjGz7Ojo62oqK5dyrWvcTucBICRDvlS9vRA+087B+3tvbm4u5m1ALARZ0RLvS2typpWWqvD5Zzv8g6ja34Ulb6ZS3fxyIZgtiuRsuLS0tt5V2f91/6N8swVRz+s+Xrw9evnzZvP5fCakApmk4HC4fHh5m9U/NF5uqmXv1PrngSAl9svJ5I3qgPI77JRjdffLkSRNAJwiwoCPMvum2NpQQTPRQ+9pq5Ruj0WiUQeFO1Kmz7/MaViWrTc7uiUpDj7I92Ce1Sni12V5UaKJCJSj5tYQ/W9ED5T11fXFx8X70xNHRUbak1tyWCgAAAAAAAAAAAAAAAAAAAAAAAAAAAAAAAAAAAAAAAAAAAAAAAAAAAAAAAAAAAAAAAAAAAAAAAAAAAAAAAAAAAAAAAAAAAAAAAAAAAAAAAAAAAAAAAAAAAAAAAAAAAAAAAAAAAAAAAAAAAAAAAAAAAAAAAAAAAAAAAAAAAAAAAAAAAAAAAAAAAAAAAAAAAAAAAAAAAAAAAAAAAAAAAAAAAAAAAAAAAAAAAAAAAAAAAAAAAAAAAAAAAAAAAAAAAAAAAAAAAAAAAAAAAAAAAAAAAAAAAAAAAAAAAAAAAAAAAAAAAAAAAAAAAAAAAAAAAAAAAAAAAAAAAAAAAAAAAAAAAAAAAAAAAAAAAAAAAAAAAAAAAAAAAAAAAAAAAAAAAAAAAAAAAAAAAAAAAAAAAAAAAAAAAAAAAAAAAAAAAAAAAAAAAAAAAAAAAAAAAAAAAAAAAAAAAAAAAAAAAAAAAAAAAAAAAAAAAAAAAAAAAAAAAAAAAAAAAAAAAAAAAAAAAAAAAAAAAAAAAAAAAAAAAAAAAAAAAAAAAAAAAAAAAAAAAAAAAAAAAAAAAAAAAAAAAAAAAAAAAAAAAAAAAAAAAAAAAAAAAAAAAAAAAAAAAAAAAAAAAAAAAAAAAAAAAAAAAAAAAAAAAAAAAAAAAAAAAAAAAAAAAAAAAAAAAAAAAAAAAAAAAAAAAAAAAAAAAAAAAAAAAAAAAAAAAAAAAAAAAAAAAAAAAAAAAAAAAAAAAAAAAAAAAAAAAAAAAAAAAAAAAAAAAAAAAAAAAAAAAAAAAAAAAAAAAAAAAAAAAAAAAAAAAAAAAAAAAAAAAAAAAAAAAAAAAAAAAAAAAAAAAAAAAAAAAAAAAAAAAAAAAAAAAAAAAAAAAAAAAAAAAAAAAAAAAAAAAAAAAAAAAAAAAAAAAAAAAAAAAAAAAAAAAAAAAAAAAAAAAAAAAAAAAAAAAAAAAAAAAAAAAAAAAAAAAAAAAAAAAAAAAAAAAAAAAAAAAAAAAAAAAAAAAAAAAAAAAAAAAAAAAAAAAAAAAAAAAAAAAAAAAAAAAAAAAAAAAAAAAAAAAAAAAAAAAAAAAAAAAAAAAAAAAAAAAAAAAAAAAAAAAAAAAAAAAAAAAAAAAAAAAAAAAAAAAAAAAAAAAAAAAAAAAAAAAAAAAAAAAAAAAAAAAAAAAAAAAAAAAAAAAAAAAAAAAAAAAAAAAAAAAAAAAAAAAAAAAAAAAAAAAAAAAAAAAAAAAAAAAAAAAAAAAAAAAAAAAAAAAAAAAAAAAAAAAAAAAAAAAAAAAAAAAAAAAAAAAAAAAAAAAAAAAAAAAAAAAAAAAAAAAAAAAAAAAAAAAAAAAAAAAAAAAAAAAAAAAAAAAAAAAAAAAAAAjMv/B9PB/5Qp/4UFAAAAAElFTkSuQmCC;clipPath=inset(33.44% 18% 32.8% 18.33%);" parent="J8isVeByOe3DuS4LRNTW-22" vertex="1">
          <mxGeometry x="16.369999999999997" y="32.160000000000004" width="97.27" height="26.99" as="geometry" />
        </mxCell>
        <mxCell id="J8isVeByOe3DuS4LRNTW-29" value="" style="shape=image;verticalLabelPosition=bottom;labelBackgroundColor=default;verticalAlign=top;aspect=fixed;imageAspect=0;image=https://miro.medium.com/v2/resize:fit:700/1*eZX21KaXanUokLYelxNURg.png;clipPath=inset(15.12% 3.33% 10.47% 4.33%);" parent="J8isVeByOe3DuS4LRNTW-22" vertex="1">
          <mxGeometry x="7.66" y="72.5" width="114.69" height="26.5" as="geometry" />
        </mxCell>
        <mxCell id="J8isVeByOe3DuS4LRNTW-26" value="" style="endArrow=classic;html=1;rounded=0;startArrow=classic;startFill=1;" parent="1" edge="1">
          <mxGeometry width="50" height="50" relative="1" as="geometry">
            <mxPoint x="785.74" y="787.65" as="sourcePoint" />
            <mxPoint x="835.74" y="787.65" as="targetPoint" />
          </mxGeometry>
        </mxCell>
      </root>
    </mxGraphModel>
  </diagram>
</mxfile>
